<svg xmlns="http://www.w3.org/2000/svg" viewBox="0 0 238.61 68.27"><defs><style>.cls-1{fill:#f49f1e;}.cls-2{fill:#f29e1e;}.cls-3{fill:#4a9e9f;}.cls-4{fill:#69c2c7;}.cls-5{fill:#4ca0a1;}.cls-6{fill:#4b9fa0;}.cls-7{fill:#6cc5ca;}.cls-8{fill:#479a9b;}.cls-9{fill:#499d9d;}.cls-10{fill:#6dc7cb;}.cls-11{fill:#6bc4c9;}.cls-12{fill:#489c9c;}.cls-13{fill:#6ac3c7;}.cls-14{fill:#4ea2a3;}.cls-15{fill:#4fa4a5;}.cls-16{fill:#4da1a2;}.cls-17{fill:#6ec8cc;}.cls-18{fill:#46999a;}.cls-19{fill:#6ac4c8;}.cls-20{fill:#58afb1;}.cls-21{fill:#6ec8cd;}.cls-22{fill:#64bcc0;}.cls-23{fill:#6fc9ce;}.cls-24{fill:#68c1c5;}.cls-25{fill:#5ab1b4;}.cls-26{fill:#5bb3b5;}.cls-27{fill:#67bfc3;}.cls-28{fill:#50a5a7;}.cls-29{fill:#66bec2;}.cls-30{fill:#51a6a8;}.cls-31{fill:#57adaf;}.cls-32{fill:#61b9bc;}.cls-33{fill:#52a7a9;}.cls-34{fill:#54aaac;}.cls-35{fill:#67c0c4;}.cls-36{fill:#60b8bb;}.cls-37{fill:#63bbbf;}.cls-38{fill:#5fb6b9;}.cls-39{fill:#5eb5b8;}.cls-40{fill:#53a9aa;}.cls-41{fill:#56acae;}.cls-42{fill:#62babe;}.cls-43{fill:#5db4b7;}.cls-44{fill:#65bec1;}.cls-45{fill:#55abad;}.cls-46{fill:#54a9ab;}.cls-47{fill:#5fb7ba;}.cls-48{fill:#50a6a8;}.cls-49{fill:#4ea3a4;}.cls-50{fill:#f29e1f;}.cls-51{fill:#f2a025;}.cls-52{fill:#f29f25;}.cls-53{fill:#f2a023;}.cls-54{fill:#f29f20;}.cls-55{fill:#f29f21;}.cls-56{fill:#4da2a3;}.cls-57{fill:#59b0b3;}.cls-58{fill:#f8bb0e;}.cls-59{fill:#fed303;}.cls-60{fill:#f9c20b;}.cls-61{fill:#fed403;}.cls-62{fill:#fed105;}.cls-63{fill:#fac40b;}.cls-64{fill:#fbc909;}.cls-65{fill:#fccc07;}.cls-66{fill:#fdce06;}.cls-67{fill:#fed404;}.cls-68{fill:#fac60a;}.cls-69{fill:#f4a41a;}.cls-70{fill:#f6b213;}.cls-71{fill:#f6af15;}.cls-72{fill:#f4a719;}.cls-73{fill:#f5ad16;}.cls-74{fill:#f4aa17;}.cls-75{fill:#fbca09;}.cls-76{fill:#fbcb08;}.cls-77{fill:#fdcd08;}.cls-78{fill:#fbc809;}</style></defs><g id="Layer_2" data-name="Layer 2"><g id="Layer_1-2" data-name="Layer 1"><rect class="cls-1" x="222.6" y="27.76" width="8.22" height="23" rx="4.11"/><rect class="cls-1" x="218.49" y="12.38" width="8.22" height="23" rx="4.11" transform="translate(17.88 114.5) rotate(-30)"/><rect class="cls-1" x="226.7" y="12.38" width="8.22" height="23" rx="4.11" transform="translate(418.76 159.97) rotate(-150)"/><path class="cls-2" d="M92.45,48.43c-3.8-.19-7.63-1.64-9.66-6a21.48,21.48,0,0,1-1.08-4.21,1,1,0,0,1,.86-1.37,17.38,17.38,0,0,1,3-.2c.94,0,1.4.72,1.51,1.61.53,4.07,3.91,5.5,7.75,4.64,2.72-.61,4-2.07,3.8-4.51a3.56,3.56,0,0,0-1.17-2.1c-1.68-1.49-3.86-1.79-6-2.3a27.78,27.78,0,0,1-4.17-1.35,7.14,7.14,0,0,1-4.66-6.56c-.26-3.71,1.15-6.6,4.54-8.19a11.82,11.82,0,0,1,11.47.33C101.74,20,103,23,103,26.44c0,.12,0,.28,0,.36-.81,1.08-2,.94-3.11.86-.77-.06-1.69-.12-1.79-1.24a5,5,0,0,0-3.37-4.52,6.69,6.69,0,0,0-6.53,1.32,2.88,2.88,0,0,0,.38,4.17c1.85,1.37,4.08,1.64,6.22,2.25,2.75.78,5.68,1.35,7.49,3.94a9.06,9.06,0,0,1-3,13.13A11.22,11.22,0,0,1,92.45,48.43Z"/><path class="cls-2" d="M182.26,26.67a.93.93,0,0,0,.05-.1c.23-.72-.45-1.68.62-2.16a4.36,4.36,0,0,1,3.78-.06,1.58,1.58,0,0,1,.65,1.17q0,11,0,21.89c0,.32-.43.89-.68.91a17.47,17.47,0,0,1-4,0c-.39-.06-.63-1.06-1-1.72a12.08,12.08,0,0,1-16.45-2.81c-3.41-4.83-3.2-11.56.53-15.57C169.33,24.42,175.08,22.29,182.26,26.67Zm.37,9.88c0-4-3.35-7.55-7.24-7.38-4.39.2-7.23,3-7.25,7.24a7.14,7.14,0,0,0,7.15,7.3A7.22,7.22,0,0,0,182.63,36.55Z"/><path class="cls-2" d="M122.68,38.42H113c.47,2.76,3.06,5.27,5.49,5.41,1.81.11,3.72.42,5.28-.92a9.11,9.11,0,0,0,1.52-1.7,3.9,3.9,0,0,1,4.59-1.11,1,1,0,0,1,.52,1.58c-1.72,3.82-4.4,6.51-8.72,6.92-4.84.46-9.1-.83-11.9-5.15s-2.63-11.1.72-15.13A12,12,0,0,1,127.9,27,10.79,10.79,0,0,1,131.05,33c0,.73,0,1.47,0,2.2s.13,1.48.1,2.21c0,.19-.39.37-.6.56-.82,0-1.66,0-2.48-.11A16.22,16.22,0,0,0,122.68,38.42Zm3.71-4.57c-.67-3-4-4.94-7.62-4.72-2.54.15-5.11,2.36-5.4,4.72Z"/><path class="cls-2" d="M153.38,48.21A5.38,5.38,0,0,1,153.1,47c0-4.27,0-8.54,0-12.82,0-2.81-1.46-5-3.69-5.55a5.39,5.39,0,0,0-6.33,2.88c-.26.5-.48,1-.72,1.54a10.78,10.78,0,0,0-.49,2.19c-.05,3.63,0,7.26-.07,10.89a7.29,7.29,0,0,1-.93,2.34,10.46,10.46,0,0,1-2.15.12,1.57,1.57,0,0,1-1.52-1.79q.08-14.67,0-29.34c0-1.1.4-1.65,1.47-1.56s2.11.33,3.17.51c0,2.7,0,5.4,0,8.1,0,1,0,1,.73,1.22,4.6-3.48,12.45-2.86,14.76,3.81a9.35,9.35,0,0,1,.23,1l-.89.65c.16.62.59,1.36.39,1.63-.88,1.15.06,1.17.73,1.4v1.22a7.23,7.23,0,0,0-.23,1.27c0,3.42,0,6.83,0,10.4l-.74-.51c-.66,1.54-1.83.57-2.74.65Z"/><path class="cls-2" d="M204.58,48c-3.91-.14-6.57-2.22-7.32-6a33.77,33.77,0,0,1-.43-5.42c-.07-2.24,0-4.48,0-6.91a26.85,26.85,0,0,0-2.7,0,1.31,1.31,0,0,1-1.64-1.33,10.28,10.28,0,0,1,.28-2.76c0-.22.6-.45.93-.47.93-.07,1.86,0,2.91,0,0-1.48.07-2.78,0-4.07-.08-1.1.29-1.75,1.38-1.89a9.1,9.1,0,0,1,2.27-.07,1.24,1.24,0,0,1,1.1,1.48c-.07,1.49,0,3,0,4.56,2,0,3.82.07,5.6,0,1-.06,1.34.28,1.44,1.15,0,.44.22.87.23,1.31,0,1.75-.36,2.12-2.09,2.13h-5.18v1.67c0,2.61,0,5.22,0,7.83,0,2.91,1.28,4.17,4.16,4.18a16.43,16.43,0,0,0,1.72,0,1.14,1.14,0,0,1,1.36,1.21,23.18,23.18,0,0,1-.45,3.18Z"/><path class="cls-3" d="M62.58,54.1l-2.21,2.7-.52,0c0-.86,0-1.74,0-2.6.09-1.3.34-2.6.33-3.9s-.36-2.58-.33-3.86c0-2.24.26-4.48.38-6.72,0-.58,0-1.16-.06-1.74-.11-2.26-.27-4.5-.31-6.76,0-.83.33-1.67.31-2.5,0-1.29-.27-2.58-.33-3.87,0-.48.36-1,.34-1.47,0-.89-.31-1.76-.34-2.65-.06-1.75-.07-3.5,0-5.25a22,22,0,0,1,.43-2.74l-.91-2.23,2.43,2.93c0,.95,0,1.91,0,2.87,0,12.16,0,24.32,0,36.48C61.85,53.22,62.33,53.66,62.58,54.1Z"/><path class="cls-4" d="M9.75,10.92l2-2.19c0,1.14.07,2.28.14,3.42s.26,2.43.24,3.65-.34,2.4-.34,3.6S12,22,12.1,23.33a11.64,11.64,0,0,1-.22,2l.81.39a24.47,24.47,0,0,0-1.24,7.47,25.44,25.44,0,0,0,1.24,7.71c-.26.25-.71.48-.75.76A18.4,18.4,0,0,0,12,43.72c0,.72,0,1.44,0,2.16A19.29,19.29,0,0,0,11.78,48c0,.8.36,1.59.36,2.38,0,1.18-.21,2.36-.27,3.54,0,.65.15,1.31.06,1.95-.17,1.15-.47,2.28-.71,3.43L10.76,59c-.83-1.1-.5-2.34-.5-3.57q0-20.73,0-41.45A17.8,17.8,0,0,0,9.75,10.92Z"/><path class="cls-5" d="M59.85,56.78l.52,0c-.75.83-1.45,1.71-2.26,2.48a22.3,22.3,0,0,1-2.19,1.64V60.7c.33-1.18.73-2.36,1-3.56a12.62,12.62,0,0,0,0-2.38l.47-4.49c0-.12.14-.23.13-.34-.19-1.74-.52-3.47-.55-5.2-.07-5,0-10.06,0-15.09,0-6.36,0-12.72,0-19.08a12.43,12.43,0,0,1,.33-2.06L58.91,10c-.61-.07-.56.26-.56.73q0,20.6-.08,41.18c0,2,0,3.92,0,6.17Z"/><path class="cls-6" d="M59.85,56.78l-1.58,1.31c0-2.25,0-4.21,0-6.17q0-20.58.08-41.18c0-.47-.05-.8.56-.73l.48.48.91,2.23a22,22,0,0,0-.43,2.74c-.07,1.75-.06,3.5,0,5.25,0,.89.3,1.76.34,2.65,0,.48-.36,1-.34,1.47.06,1.29.3,2.58.33,3.87,0,.83-.33,1.67-.31,2.5,0,2.26.2,4.5.31,6.76,0,.58.09,1.16.06,1.74-.12,2.24-.34,4.48-.38,6.72,0,1.28.33,2.57.33,3.86s-.24,2.6-.33,3.9C59.82,55,59.86,55.92,59.85,56.78Z"/><path class="cls-7" d="M5.61,15.64l1.21-1.71c.17.23.48.45.49.68,0,1.79,0,3.58,0,5.37l0,35.17L5.54,52.66c0-.58,0-1.17,0-1.75.09-1.74.28-3.48.27-5.22,0-2.32-.24-4.65-.27-7,0-2.15.1-4.31.1-6.46,0-1.44-.09-2.88-.11-4.32,0-1.27,0-2.55,0-3.82,0-1.1.11-2.2.11-3.3C5.68,19.09,5.63,17.36,5.61,15.64Z"/><path class="cls-8" d="M67.78,43.33l-2.52,6.36a4.5,4.5,0,0,1-.7-1.52c0-1.2.19-2.41.19-3.61q0-12.53-.06-25c0-.86.35-.64.8-.44l2.17,5.38-1.2-2.05.23,0c0,7.28.1,14.57.15,21.93Z"/><path class="cls-9" d="M62.58,54.1c-.25-.44-.73-.88-.73-1.33-.05-12.16,0-24.32,0-36.48,0-1,0-1.92,0-2.87l1.94,2.72a24.33,24.33,0,0,0-.45,3.37q-.06,15.26,0,30.52c0,.66.07,1.32.11,2.06l.94-.68Z"/><path class="cls-10" d="M5.61,15.64c0,1.72.07,3.45.06,5.18,0,1.1-.09,2.2-.11,3.3,0,1.27,0,2.55,0,3.82,0,1.44.12,2.88.11,4.32,0,2.15-.13,4.31-.1,6.46,0,2.32.25,4.65.27,7,0,1.74-.18,3.48-.27,5.22,0,.58,0,1.17,0,1.75L3.59,49.2l.7.48c0-.81,0-1.6,0-2.38,0-1.48,0-3,0-4.45s.2-3.06.19-4.6c0-2-.2-4.08-.2-6.12,0-1.53.21-3.06.22-4.59,0-1.73-.05-3.45-.12-5.17-.05-1.38-.17-2.75-.26-4.12Z"/><path class="cls-11" d="M7.3,55.15,7.33,20c0-1.79,0-3.58,0-5.37,0-.23-.32-.45-.49-.68l.52-.68,1.22.44V56.3l-.31,0Z"/><path class="cls-12" d="M64.34,51.41l-.94.68c0-.74-.11-1.4-.11-2.06q0-15.26,0-30.52a24.33,24.33,0,0,1,.45-3.37l1.73,2.94c-.45-.2-.8-.42-.8.44q.07,12.51.06,25c0,1.2-.23,2.41-.19,3.61a4.5,4.5,0,0,0,.7,1.52Z"/><path class="cls-13" d="M8.25,56.32l.31,0a6.73,6.73,0,0,0,.7-1.77c.14-1.86.2-3.74.19-5.6,0-3.84-.12-7.68-.14-11.52,0-3.61,0-7.22,0-10.84,0-2.89,0-5.78,0-8.68,0-2.24-.17-4.48-.26-6.73l.73-.24a17.8,17.8,0,0,1,.5,3.05q0,20.73,0,41.45c0,1.23-.33,2.47.5,3.57Z"/><path class="cls-14" d="M54.43,6.35,56.77,8c-.45.05-.79,0-.79.75,0,5.53,0,11.07-.07,16.61,0,.94-.26,1.88-.19,2.8a16.15,16.15,0,0,0,.61,3,4.37,4.37,0,0,1-.4,3.6A25.35,25.35,0,0,0,54,24V21.13c0-4.46,0-8.92,0-13.38A4.76,4.76,0,0,1,54.43,6.35Z"/><path class="cls-15" d="M54.43,6.35A4.76,4.76,0,0,0,54,7.75c0,4.46,0,8.92,0,13.38V24L51,19.3a4.69,4.69,0,0,0,.46-1.4c0-3.57,0-7.15,0-10.72,0-.95-.2-2,1.23-2.06Z"/><path class="cls-16" d="M55.93,34.75a4.37,4.37,0,0,0,.4-3.6,16.15,16.15,0,0,1-.61-3c-.07-.92.18-1.86.19-2.8C56,19.84,56,14.3,56,8.77c0-.73.34-.7.79-.75l.48.48a12.43,12.43,0,0,0-.33,2.06c0,6.36,0,12.72,0,19.08,0,5,0,10.06,0,15.09,0,1.73.36,3.46.55,5.2,0,.11-.09.22-.13.34l-1.69-3a20.28,20.28,0,0,0,.25-2c0-1.59.07-3.18,0-4.77a18.38,18.38,0,0,0-.45-2.53Z"/><path class="cls-17" d="M4.1,18.25c.09,1.37.21,2.74.26,4.12.07,1.72.14,3.44.12,5.17,0,1.53-.23,3.06-.22,4.59,0,2,.19,4.08.2,6.12,0,1.54-.16,3.07-.19,4.6s0,3,0,4.45c0,.78,0,1.57,0,2.38l-.7-.48c-.46-1-.91-2-1.36-2.94,1.52-.11.93-1.19.93-2,0-6.4.07-12.8.07-19.2,0-1.11-.18-2.21-.23-2.9l-.8.35Z"/><path class="cls-18" d="M67.78,43.33l-.94,1c0-7.36-.1-14.65-.15-21.93l-.23,0,1.2,2.05A32.36,32.36,0,0,1,67.78,43.33Z"/><path class="cls-19" d="M9,11.16c.09,2.25.22,4.49.26,6.73.05,2.9,0,5.79,0,8.68,0,3.62,0,7.23,0,10.84,0,3.84.12,7.68.14,11.52,0,1.86,0,3.74-.19,5.6a6.73,6.73,0,0,1-.7,1.77V13.69l-1.22-.44Z"/><path class="cls-20" d="M39,68l-2.7.24v-.22a5.2,5.2,0,0,0,.47-1.41c0-3,0-6,0-9,0-1-.23-1.72-1.23-2l1.7-.26,2.95-.72-1.35.67a5.66,5.66,0,0,1,.35,1.32c0,3.42,0,6.84,0,10.26A6.05,6.05,0,0,1,39,68Z"/><path class="cls-21" d="M2.2,22.51l.8-.35c0,.69.23,1.79.23,2.9,0,6.4,0,12.8-.07,19.2,0,.81.59,1.89-.93,2l-.57-1.9c.17-2.45.43-4.9.48-7.35,0-2.26-.1-4.53-.22-6.79a4.14,4.14,0,0,0-.53-1.28c.08-.51,1-1,.18-1.87-.07-.07,0-.29.05-.44,0-.9,0-1.79,0-2.69Z"/><path class="cls-22" d="M21.56,65.86l-3.67-1.74a11.69,11.69,0,0,0,.23-1.54c0-3.73,0-7.47,0-11.2a15.68,15.68,0,0,1,.22-1.92l0,0,2.45,2.42.48.78-1.23-.07v1.39c0,2.89.05,5.78,0,8.66C20,64,20,65.26,21.56,65.86Z"/><path class="cls-20" d="M37.07.21l3.15.28V.71c-1.21.59-1,1.69-1,2.71,0,2.31,0,4.62,0,6.94a9.86,9.86,0,0,0,.23,1.41l-1.71-.33L37,11a8.9,8.9,0,0,1-.24-1.43c0-2.57,0-5.13,0-7.7V.24Z"/><path class="cls-23" d="M1.67,23.94c0,.9,0,1.79,0,2.69,0,.15-.12.37-.05.44.78.9-.1,1.36-.18,1.87a4.14,4.14,0,0,1,.53,1.28c.12,2.26.27,4.53.22,6.79-.05,2.45-.31,4.9-.48,7.35-.4-1.56-.9-3.1-1.17-4.68A23.38,23.38,0,0,1,0,34.76C.15,31.1.22,27.41,1.67,23.94Z"/><path class="cls-24" d="M11.22,59.3c.24-1.15.54-2.28.71-3.43.09-.64-.09-1.3-.06-1.95.06-1.18.27-2.36.27-3.54,0-.79-.33-1.58-.36-2.38A19.29,19.29,0,0,1,12,45.88c0-.72,0-1.44,0-2.16a18.4,18.4,0,0,1-.07-2.09c0-.28.49-.51.75-.76.49,1.06,1,2.12,1.48,3.18a4.75,4.75,0,0,0-.91,1.34,7.23,7.23,0,0,0,0,1.8c0,3.47.06,6.94,0,10.42a16.84,16.84,0,0,1-.57,2.93Z"/><path class="cls-25" d="M37.27,55.33l-1.7.26c-.17.24-.44.48-.46.74s.19.7.19,1.06c0,3.41,0,6.82,0,10.29l-1,.22,0,.15h1.95v.22H32.85a16.69,16.69,0,0,0,.31-2.42c0-1.29-.45-2.61.57-3.74l-.82-.4.86-.55-1-.46.68-.29c.1-.61.18-1.06.23-1.52a1.23,1.23,0,0,0,0-.69c-.67-1.1.06-1.84.61-2.64Z"/><path class="cls-25" d="M37.07.21l-.29,0H35.25V10.77L37,11l.73.44L33.1,11c0-.75,0-1.5,0-2.25s.13-1.37.14-2.06c0-1.33,0-2.66,0-4,0-.89-.06-1.77-.09-2.66Z"/><path class="cls-26" d="M34.33,55.55c-.55.8-1.28,1.54-.61,2.64a1.23,1.23,0,0,1,0,.69c0,.46-.13.91-.23,1.52l-.68.29,1,.46-.86.55.82.4c-1,1.13-.58,2.45-.57,3.74a16.69,16.69,0,0,1-.31,2.42H31.38v-.21A7.19,7.19,0,0,0,31,63.67l1.28-1-.42-.09a17.25,17.25,0,0,1-.48-2.44c-.07-1.45,0-2.91,0-4.52l1.74-.15Z"/><path class="cls-27" d="M12.71,7.79,13,7.56l.69.16L15.43,6.1a17.69,17.69,0,0,1,.23,2c0,3.56,0,7.13,0,10.69l.4.26,1.32-1.73.3,0-3.06,4.13-1-.92a4.07,4.07,0,0,0,.56-1.4c.05-3.64,0-7.28,0-10.94l-1-.19Z"/><path class="cls-27" d="M15.43,62.65l-1.68-1.21c.16-.25.46-.48.47-.73.08-2.86.16-5.73.17-8.6,0-1.6-.16-3.2-.17-4.8a21.89,21.89,0,0,1,.27-2.54l2.2,2.94a1.71,1.71,0,0,0-1,1.84c.06,3.09,0,6.18,0,9.28C15.65,60.1,15.51,61.38,15.43,62.65Z"/><path class="cls-24" d="M12.71,7.79l.51.27c0,2.54.08,5.07.09,7.61,0,1.72-.09,3.44-.08,5.15a26.73,26.73,0,0,0,.27,2.68l-.81,2.19-.81-.39a11.64,11.64,0,0,0,.22-2c-.06-1.31-.32-2.62-.33-3.93s.32-2.4.34-3.6-.17-2.44-.24-3.65-.1-2.28-.14-3.42Z"/><path class="cls-28" d="M52.73,5.12C51.3,5.2,51.5,6.23,51.5,7.18c0,3.57,0,7.15,0,10.72A4.69,4.69,0,0,1,51,19.3l-1-1.19c0-4.09,0-8.19.06-12.28a8.39,8.39,0,0,1,.48-1.93Z"/><path class="cls-29" d="M15.43,62.65c.08-1.27.22-2.55.23-3.82,0-3.1.05-6.19,0-9.28a1.71,1.71,0,0,1,1-1.84l1.7,1.71,0,0-1.24-.28c0,.3,0,.62,0,.92-.07.75-.18,1.49-.27,2.24a3.37,3.37,0,0,0,0,.55c.12,1.79.31,3.58.36,5.37s0,3.61-.06,5.42Z"/><path class="cls-30" d="M50.53,3.9a8.39,8.39,0,0,0-.48,1.93C50,9.92,50,14,50,18.11l-1.44-1.44a8,8,0,0,1-.15-1.08c0-3.92,0-7.85.08-11.77,0-.22.36-.44.55-.65Z"/><path class="cls-31" d="M39,68a6.05,6.05,0,0,0,.23-1.17c0-3.42,0-6.84,0-10.26a5.66,5.66,0,0,0-.35-1.32l1.35-.67,1.7-.61c-1.1.44-1.22,1.37-1.21,2.38V67.51l2-.2.28,0Z"/><path class="cls-32" d="M24,66.78l-1.48-.49v-.2A4.67,4.67,0,0,0,23,64.71c0-3.41,0-6.82,0-10.22a4.7,4.7,0,0,1,.47-1.38l1.71,1a4.4,4.4,0,0,0-.76,3c.08,2.57.06,5.14,0,7.71A10.12,10.12,0,0,1,24,66.78Z"/><path class="cls-33" d="M49,3.17c-.19.21-.55.43-.55.65,0,3.92-.07,7.85-.08,11.77a8,8,0,0,0,.15,1.08l-2.26-1.73c.58-.11.83-.36.82-1,0-3.24,0-6.49,0-9.74a17.39,17.39,0,0,0-.21-1.75Z"/><path class="cls-34" d="M45.62,66.58l-1.48.48c-.2-.14-.54-.25-.56-.41-.17-1.57-.35-3.16-.4-4.74-.07-2.16,0-4.32,0-6.48,0-.56.2-1.48-1-1.09v-.45a13,13,0,0,1,1.63-.81,2.72,2.72,0,0,1,1,0c-.45.34-.45.34.29,1-.16.31-.46.62-.47.94-.09,3.67-.14,7.34-.18,11,0,.18.27.36.41.54Z"/><path class="cls-35" d="M14.49,44.77a21.89,21.89,0,0,0-.27,2.54c0,1.6.17,3.2.17,4.8,0,2.87-.09,5.74-.17,8.6,0,.25-.31.48-.47.73l-1.07-.9a16.84,16.84,0,0,0,.57-2.93c.07-3.48,0-7,0-10.42a7.23,7.23,0,0,1,0-1.8,4.75,4.75,0,0,1,.91-1.34C14.27,44.29,14.38,44.53,14.49,44.77Z"/><path class="cls-36" d="M24,66.78a10.12,10.12,0,0,0,.46-2c.05-2.57.07-5.14,0-7.71a4.4,4.4,0,0,1,.76-3l1.79.44c-1.05.2-1,1.08-1,1.82,0,1.5.05,3,.09,4.53q.06,3.23.13,6.45Z"/><path class="cls-26" d="M33.1,0c0,.89.08,1.77.09,2.66,0,1.33,0,2.66,0,4,0,.69-.12,1.37-.14,2.06s0,1.5,0,2.25l-1,0-1-.26c.07-2.36.3-4.74.14-7.09A12.38,12.38,0,0,1,31.67.2Z"/><path class="cls-37" d="M22.55,66.09v.2l-1-.43C20,65.26,20,64,20.07,62.6c.07-2.88,0-5.77,0-8.66V52.55l1.23.07a3.35,3.35,0,0,1,.32,1c0,3.08,0,6.15-.08,9.23C21.55,64.05,21.54,65.22,22.55,66.09Z"/><path class="cls-38" d="M28.43,67.83,27,67.55c0-4-.05-8.06-.05-12.09a2.73,2.73,0,0,1,.3-.87l1.53.46a14.67,14.67,0,0,0-.27,2.07C28.43,60.69,28.44,64.26,28.43,67.83Z"/><path class="cls-32" d="M23.52,2l1.71-.56.26.27c-1,.67-1,1.67-1,2.76.06,2.15,0,4.32,0,6.48,0,1.53.07,1.57,1.47,1.05h.71L22.82,13.7H22.3c.24-.45.69-.9.7-1.35.05-3.13,0-6.27,0-9.4C23,2.62,23.34,2.3,23.52,2Z"/><path class="cls-39" d="M28.43,67.83c0-3.57,0-7.14,0-10.71a14.67,14.67,0,0,1,.27-2.07l1.43.26A8.47,8.47,0,0,0,29.8,57c-.06,2.52-.07,5-.05,7.56,0,1.12.1,2.24.15,3.19l1.48.29v.21Z"/><path class="cls-34" d="M43.42,1.2,45,1.65l-.41.08c0,4.13,0,8.14.07,12.16l-.73-.46c-.77-.61-1.55-1.23-.86-2.38a.7.7,0,0,0,.09-.35l-.21-9.25Z"/><path class="cls-37" d="M22.3,13.69h.52l-2.43,1.49A6,6,0,0,1,20.1,14c0-3,0-6.07,0-9.11,0-.52,0-1-.74-.94l1-.82.49-.22a1.48,1.48,0,0,1,.78,1.58c0,2.73,0,5.45,0,8.18C21.56,13.14,21.45,13.75,22.3,13.69Z"/><path class="cls-40" d="M46.87,2.41a17.39,17.39,0,0,1,.21,1.75c0,3.25,0,6.5,0,9.74,0,.68-.24.93-.82,1l-.95-.65c.14-.33.41-.65.41-1,0-2.64-.06-5.28-.15-7.92a4.37,4.37,0,0,1,.84-3.25Z"/><path class="cls-41" d="M43.42,1.2l-.5.25c-.3.55-.82,1.08-.85,1.64-.07,1.5.11,3,.09,4.51,0,1.68-.14,3.36-.23,5l-.24-.17c-1-.82-1-1.92-1-3.1.06-2.37.05-4.73,0-7.09A6.11,6.11,0,0,0,40.22.71V.49Z"/><path class="cls-42" d="M22.3,13.69c-.85.06-.74-.55-.74-1.07,0-2.73,0-5.45,0-8.18a1.48,1.48,0,0,0-.78-1.58L23.52,2c-.18.32-.49.64-.5,1,0,3.13,0,6.27,0,9.4C23,12.79,22.54,13.24,22.3,13.69Z"/><path class="cls-43" d="M31.67.2a12.38,12.38,0,0,0-.4,3.46c.16,2.35-.07,4.73-.14,7.09l-1.48.14a7.5,7.5,0,0,0,.17-1.25c0-.6-.26-1.2-.25-1.8a36.53,36.53,0,0,0,.19-4.54,3.49,3.49,0,0,1,.64-3Z"/><path class="cls-29" d="M17.39,17.36l-1.32,1.73-.4-.26c0-3.56,0-7.13,0-10.69a17.69,17.69,0,0,0-.23-2l.25-.48.47-.28,1,.57C17,7,16.84,8,16.72,9c0,.1.11.21.12.33a14.82,14.82,0,0,1,.23,2.1c0,.73-.49,1.58-.24,2.15.48,1.11,0,2-.11,3Z"/><path class="cls-44" d="M17.39,17.36l-.67-.8c.15-.95.59-1.88.11-3-.25-.57.22-1.42.24-2.15a14.82,14.82,0,0,0-.23-2.1c0-.12-.13-.23-.12-.33.12-1,.26-2,.4-3.08l-1-.57,4.16-2.26-1,.82-1.79.88a4.67,4.67,0,0,1,.54,1.34c.06,1.71,0,3.42,0,5.13v5.06l1-.4-1.45,1.47Z"/><path class="cls-40" d="M45.62,66.58h-.74a3.64,3.64,0,0,0,.75-2.69c0-3,.15-6,.23-9.06a2.38,2.38,0,0,1,1.25,2.4c-.07,2.94,0,5.88,0,8.83Z"/><path class="cls-33" d="M47.09,66.06c0-3-.05-5.89,0-8.83a2.38,2.38,0,0,0-1.25-2.4l-.74-.74c-.74-.64-.74-.64-.29-1L49.09,57c-.16.14-.47.28-.48.43-.12,2.71-.2,5.42-.3,8.13Z"/><path class="cls-39" d="M30.4.26a3.49,3.49,0,0,0-.64,3,36.53,36.53,0,0,1-.19,4.54c0,.6.21,1.2.25,1.8a7.5,7.5,0,0,1-.17,1.25l1.48-.14,1,.26-3.63.52c0-.64-.08-1.28-.08-1.92,0-2.74,0-5.48,0-8.32L27.7,1V.72Z"/><path class="cls-44" d="M17.13,63.68c0-1.81.11-3.62.06-5.42s-.24-3.58-.36-5.37a3.37,3.37,0,0,1,0-.55c.09-.75.2-1.49.27-2.24,0-.3,0-.62,0-.92l1.24.28a15.68,15.68,0,0,0-.22,1.92c0,3.73,0,7.47,0,11.2a11.69,11.69,0,0,1-.23,1.54Z"/><path class="cls-45" d="M42.18,54.34c1.17-.39,1,.53,1,1.09,0,2.16,0,4.32,0,6.48,0,1.58.23,3.17.4,4.74,0,.16.36.27.56.41L43,67.33l-.28,0-.49-.26Z"/><path class="cls-46" d="M46.44,2.14a4.37,4.37,0,0,0-.84,3.25c.09,2.64.13,5.28.15,7.92,0,.33-.27.65-.41,1l-.71-.4L44.56,1.73,45,1.65Z"/><path class="cls-15" d="M54,62.43l-1.48,1-1.14-.13.39-5,1.47-.69L54.69,57c-.24.36-.67.7-.69,1.07C53.92,59.53,54,61,54,62.43Z"/><path class="cls-30" d="M53.22,57.56l-1.47.69C50.2,57.5,50,57.6,50,59.31c0,.89,0,1.79,0,2.68s.07,1.56-.83,2a.52.52,0,0,0-.2.47c0,.11.29.21.45.23a6,6,0,0,0,.85,0l-2,.94c.1-2.71.18-5.42.3-8.13,0-.15.32-.29.48-.43Z"/><path class="cls-47" d="M27.21,54.59a2.73,2.73,0,0,0-.3.87c0,4,0,8.06.05,12.09l-.74-.2q-.07-3.22-.13-6.45c0-1.51-.12-3-.09-4.53,0-.74,0-1.62,1-1.82h.09Z"/><path class="cls-47" d="M27.7.72V1c-.57,0-.83.08-.8.82.1,2.47.09,5,0,7.43a14.73,14.73,0,0,1-.53,1.68c0,.26.23.57.36.86a1.55,1.55,0,0,1-.08.23H26c-.08-.09-.23-.19-.23-.28.06-2.33.2-4.66.19-7a19.67,19.67,0,0,0-.45-3l-.26-.27Z"/><path class="cls-48" d="M50.31,64.63a6,6,0,0,1-.85,0c-.16,0-.42-.12-.45-.23a.52.52,0,0,1,.2-.47c.9-.41.84-1.19.83-2s0-1.79,0-2.68c0-1.71.17-1.81,1.72-1.06l-.39,5,1.14.13Z"/><path class="cls-49" d="M54,62.43c0-1.45-.06-2.9,0-4.35,0-.37.45-.71.69-1.07l.5-.18.82.93c-.11.6-.3,1.54-.44,2.49,0,.13.23.3.35.45v.22Z"/><path class="cls-50" d="M153.38,48.21l.67-.92c.91-.08,2.08.89,2.74-.65l.74.51c0-3.57,0-7,0-10.4a7.23,7.23,0,0,1,.23-1.27v11a1.94,1.94,0,0,1-2,2.22c-.32,0-.65,0-1,0Z"/><path class="cls-51" d="M140.84,48.46a7.29,7.29,0,0,0,.93-2.34c.11-3.63,0-7.26.07-10.89a10.78,10.78,0,0,1,.49-2.19c0,4.58-.06,9.16-.05,13.74C142.29,47.83,141.88,48.38,140.84,48.46Z"/><path class="cls-52" d="M154.79,48.72c.33,0,.66,0,1,0a1.94,1.94,0,0,0,2-2.22V34.26l0-2a9.77,9.77,0,0,1,.2,1.41q0,6.48,0,12.94C158,48.63,156.86,49.39,154.79,48.72Z"/><path class="cls-51" d="M142.55,25.72c-.69-.18-.72-.22-.73-1.22,0-2.7,0-5.4,0-8.1a2.94,2.94,0,0,1,.43,1c0,2.4,0,4.8,0,7.19A5.52,5.52,0,0,0,142.55,25.72Z"/><path class="cls-53" d="M122.68,38.42a16.22,16.22,0,0,1,5.37-.6c.82.1,1.66.08,2.48.11v.21Z"/><path class="cls-50" d="M157.8,32.23l0,2c-.67-.23-1.61-.25-.73-1.4.2-.27-.23-1-.39-1.63l.89-.65C157.63,31.13,157.72,31.68,157.8,32.23Z"/><path class="cls-54" d="M130.53,38.14v-.21c.21-.19.59-.37.6-.56,0-.73-.08-1.47-.1-2.21s0-1.47,0-2.2c.24,1.65.48,3.3.76,5.18Z"/><path class="cls-55" d="M204.58,48l3.51-.27c-.1.14-.2.42-.29.42C206.73,48.13,205.66,48.06,204.58,48Z"/><path class="cls-35" d="M15.68,5.62l-.25.48L13.65,7.72,13,7.56Z"/><path class="cls-56" d="M55.19,56.83l1.69-2.07a12.62,12.62,0,0,1,0,2.38c-.23,1.2-.63,2.38-1,3.56-.12-.15-.37-.32-.35-.45.14-1,.33-1.89.44-2.49Z"/><path class="cls-49" d="M55.66,47.28a1.43,1.43,0,0,1-.21-.12c-2.78-2.41-2.75-2.4-1.25-5.72.5-1.13.85-2.33,1.26-3.5a18.38,18.38,0,0,1,.45,2.53c.07,1.59,0,3.18,0,4.77A20.28,20.28,0,0,1,55.66,47.28Z"/><path class="cls-57" d="M36.29,68.05H34.34l0-.15,1-.22c0-3.47,0-6.88,0-10.29,0-.36-.23-.72-.19-1.06s.29-.5.46-.74c1,.33,1.25,1,1.23,2-.06,3,0,6,0,9A5.2,5.2,0,0,1,36.29,68.05Z"/><path class="cls-42" d="M20.84,51.84l2.69,1.27a4.7,4.7,0,0,0-.47,1.38c0,3.4,0,6.81,0,10.22a4.67,4.67,0,0,1-.46,1.38c-1-.87-1-2-1-3.22,0-3.08.08-6.15.08-9.23a3.35,3.35,0,0,0-.32-1Z"/><path class="cls-31" d="M41.69,12.47l-2.22-.7a9.86,9.86,0,0,1-.23-1.41c0-2.32,0-4.63,0-6.94,0-1-.22-2.12,1-2.71a6.11,6.11,0,0,1,.46,1.57c.06,2.36.07,4.72,0,7.09C40.66,10.55,40.69,11.65,41.69,12.47Z"/><path class="cls-57" d="M37,11l-1.78-.23V.24h1.53V1.87c0,2.57,0,5.13,0,7.7A8.9,8.9,0,0,0,37,11Z"/><path class="cls-43" d="M30.17,55.31l2.95.21-1.74.15c0,1.61-.05,3.07,0,4.52a17.25,17.25,0,0,0,.48,2.44l.42.09-1.28,1a7.19,7.19,0,0,1,.36,4.38l-1.48-.29c0-1-.15-2.07-.15-3.19,0-2.52,0-5,.05-7.56A8.47,8.47,0,0,1,30.17,55.31Z"/><path class="cls-35" d="M14.63,21.51c-.38.66-.76,1.32-1.13,2a26.73,26.73,0,0,1-.27-2.68c0-1.71.08-3.43.08-5.15,0-2.54-.06-5.07-.09-7.61l1,.19c0,3.66,0,7.3,0,10.94a4.07,4.07,0,0,1-.56,1.4Z"/><path class="cls-41" d="M41.92,54l.26-.11V67.05l.49.26-2,.2V56.38C40.7,55.37,40.82,54.44,41.92,54Z"/><path class="cls-46" d="M45.12,54.09l.74.74c-.08,3-.19,6-.23,9.06a3.64,3.64,0,0,1-.75,2.69c-.14-.18-.41-.36-.41-.54,0-3.67.09-7.34.18-11C44.66,54.71,45,54.4,45.12,54.09Z"/><path class="cls-36" d="M25.49,1.69a19.67,19.67,0,0,1,.45,3c0,2.33-.13,4.66-.19,7,0,.09.15.19.23.28-1.4.52-1.47.48-1.47-1.05,0-2.16,0-4.33,0-6.48C24.46,3.36,24.45,2.36,25.49,1.69Z"/><path class="cls-45" d="M43.9,13.43l-2-.79c.09-1.68.21-3.36.23-5,0-1.5-.16-3-.09-4.51,0-.56.55-1.09.85-1.64l.21,9.25a.7.7,0,0,1-.09.35C42.35,12.2,43.13,12.82,43.9,13.43Z"/><path class="cls-22" d="M20.39,15.19l-1.25.72-1,.4V11.25c0-1.71,0-3.42,0-5.13a4.67,4.67,0,0,0-.54-1.34l1.79-.88c.74-.06.75.42.74.94,0,3,0,6.08,0,9.11A6,6,0,0,0,20.39,15.19Z"/><path class="cls-38" d="M28.52,11.53l-1.75.22c-.13-.29-.4-.6-.36-.86a14.73,14.73,0,0,0,.53-1.68c0-2.48.06-5,0-7.43,0-.74.23-.84.8-.82l.74.33c0,2.84,0,5.58,0,8.32C28.44,10.25,28.49,10.89,28.52,11.53Z"/><path class="cls-2" d="M41.23,34.38a46.14,46.14,0,0,1,3.54,4,4.7,4.7,0,0,1-.9,6.38,4.6,4.6,0,0,1-6.48-.36c-.9-1-2-2-3.09-3.07-.9.92-1.77,1.81-2.65,2.69A5,5,0,0,1,23.05,42a4.43,4.43,0,0,1,1.12-4.6c.95-1.06,2-2.06,2.95-3.09l.19.51.17.18c1.39,1.37,2.76,2.75,4.18,4.1,1.08,1,1.47,1,2.51-.06,1.42-1.44,2.83-2.9,4.27-4.32.51-.5,1.12-.91,1.68-1.37Z"/><path class="cls-58" d="M27.48,35l-.17-.18q3.6-3.67,7.21-7.33l6.8,6.7a.47.47,0,0,1-.09.22l-1.11-1.06-.88-.86L38.72,32l-.7-.69-.53-.52-.7-.69-.94-.79-6.8,6.91Z"/><path class="cls-59" d="M24.35,31.49a4.79,4.79,0,0,1,0-7c1.9-2,5.36-1.89,6.52-.3l.37.67a7.88,7.88,0,0,0-1.89.91,46.91,46.91,0,0,0-3.5,3.55A17.91,17.91,0,0,0,24.35,31.49Zm4.85-7.21c-2.79-.49-3.58.28-4.8,2.68a1.86,1.86,0,0,0,.7,2.43C26.39,27.63,28.54,26.66,29.2,24.28Z"/><path class="cls-60" d="M41.32,34.16l-6.8-6.7q-3.6,3.66-7.21,7.33c-.07-.17-.13-.34-.19-.51l-.32-.38.49-.84c.56.64.9.12,1.27-.24L34,27.64l1.31-1.2c.85.77,1.62,1.43,2.34,2.12q2.35,2.27,4.69,4.55Z"/><path class="cls-61" d="M39.19,23.13,41.88,23c.9.92,1.81,1.83,2.7,2.75a.38.38,0,0,1,.12.32c-.41,1,.34.86.87,1l-.1,2.29c-.86-.66-1.73-1.3-2.57-2-1.22-1-2.4-2-3.66-3l.79-.8Z"/><path class="cls-62" d="M37.79,23.77l.84-.48c.1.43,0,1,.31,1.27,2,1.91,4,3.75,6,5.62l-1.57,1.53.31-1a15,15,0,0,1-1.21-.95c-1.18-1.13-2.32-2.3-3.51-3.42-.58-.55-1.25-1-1.88-1.52l-.15-.16Z"/><path class="cls-63" d="M27.29,33.06l-.49.84-1-1,.69.14-.25-.25,6.23-6.33.52.17.32.38Z"/><path class="cls-64" d="M32.43,26.44,26.2,32.77l.25.25-.69-.14L24.89,32l.83-.16,1.54-1.92a26.48,26.48,0,0,0,2-1.78C30.16,27.23,31,26.36,32.43,26.44Z"/><path class="cls-65" d="M37.09,24.85c.63.5,1.3,1,1.88,1.52,1.19,1.12,2.33,2.29,3.51,3.42a15,15,0,0,0,1.21.95l-.31,1-.46.54-.39,0,.18-.18c-.06-.33,0-.77-.18-1-1.76-1.75-3.58-3.44-5.34-5.2C37,25.73,37.12,25.22,37.09,24.85Z"/><path class="cls-66" d="M25.72,31.86l-.83.16-.54-.53a17.91,17.91,0,0,1,1.46-2.14,46.91,46.91,0,0,1,3.5-3.55,7.88,7.88,0,0,1,1.89-.91l.7.69-1,.35c-.27.06-.64,0-.8.2-1.45,1.49-2.89,3-4.27,4.54C25.58,30.91,25.73,31.46,25.72,31.86Z"/><path class="cls-60" d="M31.9,25.58l-.7-.69-.37-.67L34,27.28v.36l-5.44,5.18c-.37.36-.71.88-1.27.24l6-6.07L33,26.61Z"/><path class="cls-67" d="M45,30.18c-2-1.87-4-3.71-6-5.62-.26-.26-.21-.84-.31-1.27l.56-.16.84.35-.79.8c1.26,1,2.44,2.06,3.66,3,.84.69,1.71,1.33,2.57,2Z"/><path class="cls-68" d="M34,27.64v-.36c1-.93,1.89-1.87,2.85-2.79a9.72,9.72,0,0,1,.94-.72l-.85.92-.86.88c0,.19,0,.46.07.58.53.6,1.08,1.19,1.66,1.73,1.56,1.48,3.15,2.93,4.72,4.39l.39,0-.58.86Q40,30.83,37.65,28.56c-.72-.69-1.49-1.35-2.34-2.12Z"/><path class="cls-67" d="M45.57,27c-.53-.11-1.28,0-.87-1a.38.38,0,0,0-.12-.32c-.89-.92-1.8-1.83-2.7-2.75A4.63,4.63,0,0,1,45.57,27Z"/><path class="cls-69" d="M39.24,32.46l.88.86c-.56.46-1.17.87-1.68,1.37C37,36.11,35.59,37.57,34.17,39c-1,1.05-1.43,1.09-2.51.06-1.42-1.35-2.79-2.73-4.18-4.1l1.57,1.2.87.86.35.34.7.69.35.35c.62.78,1.16.62,1.79,0,1.78-1.88,3.61-3.73,5.43-5.57A2.51,2.51,0,0,1,39.24,32.46Z"/><path class="cls-70" d="M29.92,37l-.87-.86,6.8-6.91.94.79Z"/><path class="cls-71" d="M29.92,37l6.87-7,.7.69c-1.68,1.71-3.33,3.45-5.06,5.11a15.79,15.79,0,0,1-2.16,1.52Z"/><path class="cls-72" d="M39.24,32.46a2.51,2.51,0,0,0-.7.33c-1.82,1.84-3.65,3.69-5.43,5.57-.63.67-1.17.83-1.79,0a15.12,15.12,0,0,0,2-1.47c1.57-1.55,3.06-3.19,4.61-4.76.16-.17.49-.16.75-.23Z"/><path class="cls-73" d="M30.27,37.37a15.79,15.79,0,0,0,2.16-1.52c1.73-1.66,3.38-3.4,5.06-5.11l.53.52a3.52,3.52,0,0,0-.69.44c-2.13,2.11-4.24,4.24-6.36,6.36Z"/><path class="cls-74" d="M31,38.06c2.12-2.12,4.23-4.25,6.36-6.36a3.52,3.52,0,0,1,.69-.44l.7.69c-.26.07-.59.06-.75.23-1.55,1.57-3,3.21-4.61,4.76a15.12,15.12,0,0,1-2,1.47Z"/><path class="cls-61" d="M29.2,24.28c-.66,2.38-2.81,3.35-4.1,5.11A1.86,1.86,0,0,1,24.4,27C25.62,24.56,26.41,23.79,29.2,24.28Z"/><path class="cls-75" d="M36.08,25.57l.86-.88.15.16c0,.37-.09.88.1,1.08,1.76,1.76,3.58,3.45,5.34,5.2.19.19.12.63.18,1Z"/><path class="cls-76" d="M31.9,25.58l1.05,1-.52-.17c-1.41-.08-2.27.79-3.15,1.72a26.48,26.48,0,0,1-2,1.78l3.6-4Z"/><path class="cls-77" d="M30.86,25.93l-3.6,4-1.54,1.92c0-.4-.14-.95.07-1.19,1.38-1.55,2.82-3.05,4.27-4.54C30.22,26,30.59,26,30.86,25.93Z"/><path class="cls-78" d="M36.08,25.57l6.63,6.52-.18.18c-1.57-1.46-3.16-2.91-4.72-4.39-.58-.54-1.13-1.13-1.66-1.73C36.05,26,36.1,25.76,36.08,25.57Z"/></g></g></svg>