<svg xmlns="http://www.w3.org/2000/svg" viewBox="0 0 76.59 70.6"><defs><style>.cls-1{fill:#ff5352;}.cls-2{fill:#fff;}</style></defs><g id="Layer_2" data-name="Layer 2"><g id="OBJECTS"><path class="cls-1" d="M45.21,4.94C43.42,1.75,41,0,38.3,0s-5.13,1.75-6.91,4.94L1.5,58.34c-1.77,3.16-2,6.21-.59,8.57S5.08,70.6,8.74,70.6H67.85c3.66,0,6.44-1.31,7.84-3.69s1.17-5.41-.6-8.57Z"/><path class="cls-2" d="M38.29,53.9a3.94,3.94,0,1,0,4,3.94A3.94,3.94,0,0,0,38.29,53.9Z"/><path class="cls-2" d="M38.3,49.31c1.44,0,2.73-1.77,2.85-3.93l1.51-25.62A3.68,3.68,0,0,0,39,15.83H37.64a3.68,3.68,0,0,0-3.71,3.93l1.51,25.62C35.57,47.54,36.85,49.31,38.3,49.31Z"/></g></g></svg>