<svg xmlns="http://www.w3.org/2000/svg" viewBox="0 0 1715 1211.77"><defs><style>.cls-1,.cls-10,.cls-4{fill:none;stroke-miterlimit:10;}.cls-1{stroke:#bbc8eb;stroke-width:2.5px;}.cls-2{fill:#60aaaa;}.cls-3{fill:#7ccfd3;}.cls-4{stroke:#fff;}.cls-10,.cls-4{stroke-width:3.75px;}.cls-5{fill:#fff;}.cls-14,.cls-6{fill:#1f3c88;}.cls-16,.cls-20,.cls-6{opacity:0.3;}.cls-7{fill:#479c9c;}.cls-8{fill:#fccf8f;}.cls-9{fill:#fbb44a;}.cls-10{stroke:#102048;}.cls-11,.cls-15{fill:#102048;}.cls-12{fill:#f9b384;}.cls-13,.cls-18{fill:#e28b6d;}.cls-15,.cls-17,.cls-18{opacity:0.6;}.cls-17{fill:#fc8879;}.cls-19{fill:#fbc343;}.cls-20{fill:#6f3428;}.cls-21{fill:#bb9132;}</style></defs><g id="Layer_2" data-name="Layer 2"><g id="Layer_1-2" data-name="Layer 1"><rect class="cls-1" x="776.8" y="935.86" width="86.33" height="43.32"/><rect class="cls-1" x="863.13" y="935.86" width="86.33" height="43.32"/><rect class="cls-1" x="1455.66" y="582.41" width="86.33" height="43.32"/><rect class="cls-1" x="1542" y="582.41" width="86.33" height="43.32"/><rect class="cls-1" x="634.3" y="108.36" width="86.33" height="43.32"/><rect class="cls-1" x="720.63" y="108.36" width="86.33" height="43.32"/><rect class="cls-2" x="124.67" y="343.92" width="518.17" height="865.87"/><rect class="cls-3" x="157.5" y="377.29" width="452.5" height="832.5"/><rect class="cls-4" x="224.42" y="451.75" width="318.67" height="184.01"/><rect class="cls-4" x="224.42" y="896.58" width="318.67" height="252.3"/><path class="cls-5" d="M542.8,739.35A37.48,37.48,0,1,0,482.4,769v29.09A22.92,22.92,0,0,0,505.32,821h0a22.92,22.92,0,0,0,22.92-22.92V769A37.39,37.39,0,0,0,542.8,739.35Z"/><path class="cls-6" d="M517.62,798.67V769.58A37.44,37.44,0,0,0,499,702.74c-.42,0-.83,0-1.24-.07a38,38,0,0,1,11.86-.56A37.45,37.45,0,0,1,528.24,769v29.09A22.92,22.92,0,0,1,505.32,821a23.54,23.54,0,0,1-4-.36A23,23,0,0,0,517.62,798.67Z"/><rect class="cls-6" x="265" y="507.34" width="240" height="82.97" rx="28.41"/><rect class="cls-7" x="265" y="499.01" width="240" height="82.97" rx="28.41"/><path class="cls-5" d="M290.85,549.17A1,1,0,0,1,292,548h4.95c.68,0,1,.36,1.17,1.08.36,1.62,1.71,2.43,4.37,2.43,2.92,0,3.87-1.12,3.87-2.43,0-1.84-2.25-2.65-5-3.6-4.45-1.53-10.08-3.38-10.08-10.26,0-6.3,5.13-9.46,10.49-9.46s10.31,2.84,10.85,9.37a1,1,0,0,1-1.13,1.17h-5c-.68,0-1-.36-1.17-1.08-.36-1.67-1.53-2.43-3.6-2.43-2.25,0-3.29,1.12-3.29,2.43,0,1.89,1.85,2.79,4.46,3.73,4.5,1.58,10.62,3.2,10.62,10.13,0,6.3-5,9.45-11.07,9.45S291.4,555.7,290.85,549.17Z"/><path class="cls-5" d="M316.69,548.18V527.52a1,1,0,0,1,1.12-1.13h4.95a1,1,0,0,1,1.13,1.13v20c0,2.39,1.12,4,4.5,4s4.5-1.57,4.5-4v-20a1,1,0,0,1,1.13-1.13h5a1,1,0,0,1,1.12,1.13v20.66c0,6.75-5.22,10.35-11.7,10.35S316.69,554.93,316.69,548.18Z"/><path class="cls-5" d="M343.68,542.15a16,16,0,0,1,16.39-16.39,15.49,15.49,0,0,1,15.17,11.08.93.93,0,0,1-1,1.26h-5.31a1.3,1.3,0,0,1-1.26-.9,8.09,8.09,0,0,0-7.61-4.41c-5.58,0-9.18,3.73-9.18,9.36s3.6,9.36,9.18,9.36a8.09,8.09,0,0,0,7.61-4.41,1.3,1.3,0,0,1,1.26-.9h5.31c.76,0,1.17.45,1,1.17a15.43,15.43,0,0,1-15.17,11.16A16,16,0,0,1,343.68,542.15Z"/><path class="cls-5" d="M377.3,542.15a16,16,0,0,1,16.38-16.39,15.47,15.47,0,0,1,15.17,11.08.93.93,0,0,1-1,1.26h-5.31a1.3,1.3,0,0,1-1.26-.9,8.09,8.09,0,0,0-7.61-4.41c-5.58,0-9.18,3.73-9.18,9.36s3.6,9.36,9.18,9.36a8.09,8.09,0,0,0,7.61-4.41,1.3,1.3,0,0,1,1.26-.9h5.31c.77,0,1.17.45,1,1.17a15.42,15.42,0,0,1-15.17,11.16A16,16,0,0,1,377.3,542.15Z"/><path class="cls-5" d="M431.17,552.1v4.68A1,1,0,0,1,430,557.9H413.39a1,1,0,0,1-1.13-1.12V527.52a1,1,0,0,1,1.13-1.13h16.43a1,1,0,0,1,1.12,1.13v4.68a1,1,0,0,1-1.12,1.13H419.47v5.26h9.22a1,1,0,0,1,1.13,1.13v4.5a1,1,0,0,1-1.13,1.13h-9.22V551H430A1,1,0,0,1,431.17,552.1Z"/><path class="cls-5" d="M433.46,549.17a1,1,0,0,1,1.12-1.17h4.95c.68,0,1,.36,1.17,1.08.36,1.62,1.71,2.43,4.37,2.43,2.93,0,3.87-1.12,3.87-2.43,0-1.84-2.25-2.65-5-3.6-4.46-1.53-10.09-3.38-10.09-10.26,0-6.3,5.13-9.46,10.49-9.46s10.31,2.84,10.85,9.37a1,1,0,0,1-1.13,1.17h-4.95c-.67,0-1-.36-1.17-1.08-.36-1.67-1.53-2.43-3.6-2.43-2.25,0-3.29,1.12-3.29,2.43,0,1.89,1.85,2.79,4.46,3.73,4.5,1.58,10.62,3.2,10.62,10.13,0,6.3-5,9.45-11.07,9.45S434,555.7,433.46,549.17Z"/><path class="cls-5" d="M458,549.17a1,1,0,0,1,1.13-1.17h4.95c.68,0,1,.36,1.17,1.08.36,1.62,1.71,2.43,4.37,2.43,2.92,0,3.87-1.12,3.87-2.43,0-1.84-2.25-2.65-5-3.6-4.46-1.53-10.08-3.38-10.08-10.26,0-6.3,5.13-9.46,10.49-9.46s10.3,2.84,10.84,9.37a1,1,0,0,1-1.12,1.17h-5c-.68,0-1-.36-1.17-1.08-.36-1.67-1.53-2.43-3.6-2.43-2.26,0-3.29,1.12-3.29,2.43,0,1.89,1.85,2.79,4.46,3.73,4.5,1.58,10.62,3.2,10.62,10.13,0,6.3-5,9.45-11.07,9.45S458.52,555.7,458,549.17Z"/><path class="cls-8" d="M1387.5,1048.64c49.38,3.75,76,32.5,96.25,55,22.14,24.55,44.66,38.54,52.08,61.25C1472.5,1160.73,1398.75,1123,1387.5,1048.64Z"/><path class="cls-9" d="M1423.55,972.26s70,41.38,80,85.55c8.64,38.14,17.93,78.85,12.23,110.84C1445.42,1123,1418.54,1053.64,1423.55,972.26Z"/><path class="cls-9" d="M1644.38,1063c-42.4.29-71.36,18.46-93.76,33.75s-27.19,42.45-35.61,60.15C1574.92,1147.63,1638.77,1095.31,1644.38,1063Z"/><path class="cls-8" d="M1587.2,903.57a217.32,217.32,0,0,1-72.56,263.53C1456.76,1068.71,1500.27,941.28,1587.2,903.57Z"/><rect class="cls-5" x="1463.81" y="1032.39" width="165.65" height="2.5" transform="matrix(0.26, -0.97, 0.97, 0.26, 151.68, 2264.33)"/><rect class="cls-5" x="1547.88" y="952.73" width="2.5" height="51.7" transform="translate(-171.98 349.91) rotate(-12.21)"/><rect class="cls-5" x="1535.74" y="1015.07" width="58.66" height="2.5" transform="translate(-232.62 1516.97) rotate(-48.56)"/><rect class="cls-5" x="1526.01" y="1014.82" width="2.5" height="54.74" transform="translate(-274.51 627.09) rotate(-21.34)"/><rect class="cls-5" x="1524.28" y="1078.25" width="53.28" height="2.5" transform="translate(-333.4 1221) rotate(-39.13)"/><path class="cls-9" d="M1544.67,1210h-73.09a41,41,0,0,1-40.69-36.35l-3.39-29.9h161.25l-3.39,29.9A41,41,0,0,1,1544.67,1210Z"/><line class="cls-10" y1="1209.89" x2="1715" y2="1209.89"/><path class="cls-11" d="M859.78,509.47S826.24,529,830.93,543l20.1,3.75Z"/><path class="cls-12" d="M854.29,507.76l-19,12.23c-4.23.82-14.52-5.26-20.42-17.47h0a16.15,16.15,0,0,1-3.31-2.63,6.74,6.74,0,0,1-1.9-6,6.36,6.36,0,0,1,3.47-4.63c.22-4.71,1.45-8.15,5.78-7.83,0-4.36,2.35-7.21,10.11-6.79-.66-6.24,2.53-7.75,7.76-6.75a19.26,19.26,0,0,1,10,5.52c.78.79,1.53,1.6,2.24,2.42a21.94,21.94,0,0,1,2.5,3.53A25.12,25.12,0,0,1,855,493.6Z"/><path class="cls-13" d="M845.6,489.09l-5-5.47c-3.34,1.46-6.15,1.7-8.36.73a6.17,6.17,0,0,1-3.29-3.49l-.13-.42,6.74-5.7c2-1.54,6.92-1.73,9.4-1.19l-.29,1.3c-2.41-.53-6.79-.19-8.28.93l-6,5.08a4.84,4.84,0,0,0,2.41,2.28c1.93.85,4.52.54,7.69-.93l.44-.2,5.68,6.18Z"/><path class="cls-13" d="M818.7,503.84a13.66,13.66,0,0,1-4-.69l.39-1.27c4,1.24,6.38.72,8.2-1.79l1.08.78A6.59,6.59,0,0,1,818.7,503.84Z"/><path class="cls-13" d="M835.21,499.42c-1.63,0-3.49-.89-6.21-2.82a27.6,27.6,0,0,1-7.21-8.29l1.16-.64a27,27,0,0,0,6.81,7.84c4.32,3.05,5.79,3,7.64,1.81a.88.88,0,0,0,.41-.66c.24-1.4-1.45-3.94-2.06-4.72-.19-.26-4.23-5.84-5.35-8.82l1.24-.47c1.06,2.81,5.13,8.43,5.17,8.49.26.33,2.68,3.51,2.32,5.74a2.28,2.28,0,0,1-1,1.56A5.19,5.19,0,0,1,835.21,499.42Z"/><path class="cls-13" d="M825.37,501.1c-2.86,0-5.82-1.33-8.42-5.17a3.3,3.3,0,0,0-.24-.34l.78-1.07c.19.11.3.28.57.67,1.3,1.92,5.27,7.78,13.81,2.36l.71,1.13A13.9,13.9,0,0,1,825.37,501.1Z"/><path class="cls-13" d="M840.54,496.84a7.08,7.08,0,0,1-2.06-.34l.38-1.27c1.56.47,2.71.35,3.43-.35,1.88-1.83,1-7.28.42-9.22l1.29-.35c.09.32,2,7.78-.78,10.52A3.72,3.72,0,0,1,840.54,496.84Z"/><polygon class="cls-12" points="869.63 526.22 846.01 548.17 839.71 537.29 832.08 524.09 828.58 518.04 826.38 514.24 853.98 499.92 854.61 500.99 859.68 509.52 859.73 509.57 869.63 526.22"/><polygon class="cls-12" points="1071.43 430.52 1063.46 495.87 1017.08 493.84 1019.91 475.84 1022.86 457.07 1023.51 452.92 1071.43 430.52"/><path class="cls-11" d="M1053.06,456.34s-7.73,15.73-33.15,19.5l3-18.77Z"/><path class="cls-12" d="M1218.53,341c1.23-21.94,4.8-40.6,14.07-51.25l40,17.19c-6.36,20.44-16.14,37.85-26.57,54.69Z"/><path class="cls-9" d="M1203.53,813.22l53.75-.63,8.75,90c-12.71-11.87-23.19-28.87-31.87-50l-36.25-12.5Z"/><path class="cls-9" d="M1007.81,1034l20.92,62.8L965.22,1143c2.34-17.24,10.16-35.61,22.39-54.91l-10.75-36.8Z"/><path class="cls-14" d="M984.16,867l42.5,178.75-62.5,22.5-56.93-153.5a128.58,128.58,0,0,1-5.12-72l38.3-177,8.75-40,65,15,11.15,83.57,1.35,10.18-21.2,66.1Z"/><path class="cls-15" d="M1026.66,734.47l-25.94,80.62c-15-48.65,4.69-107.5,4.69-107.5l19.9,16.7Z"/><path class="cls-14" d="M1080.82,656.55l50,154.17,85-4.17-7.5,75.84-95.67,11.25a43.49,43.49,0,0,1-44.84-25.54L964.16,634.89l110-4.17Z"/><path class="cls-11" d="M1071.61,423c13.27-7.76,19.82-19.63,19.05-32.69-1-17-14.2-31.26-31-33.94-13.35-2.13-28.79.88-45.53,7.15-31.17-23.93-61.9,35.12-9.44,50.26Z"/><path class="cls-12" d="M1074,430.52s-9,35.67-45.9,35.05c-16.53-.28-22.83-10.23-24.75-21.13a62.2,62.2,0,0,1,0-18.95,75.87,75.87,0,0,1,1.88-9.35l-1.48-20.85,22.1-12.7,45,9.18Z"/><path class="cls-11" d="M1068.74,420.72c2.92-8.75-.42-19-12.08-23.13-15.45,9.38-38.75,7.92-57.09-1l-2.7-6.66L1011,376.34l38.34-4.16,29.37,11.25.83,17.5-2.5,14.58Z"/><path class="cls-11" d="M1017.71,415.21c0,2.76-1.43,5-3.2,5s-3.2-2.24-3.2-5,1.44-5,3.2-5S1017.71,412.44,1017.71,415.21Z"/><path class="cls-11" d="M1045.24,418c-.23,2.87-1.91,5.08-3.74,4.93s-3.14-2.59-2.91-5.46,1.91-5.08,3.75-4.93S1045.47,415.13,1045.24,418Z"/><path class="cls-11" d="M1027.8,415.36c-.9,1.95-1.9,3.81-3,5.69s-2.43,3.57-3.21,5.29a5.3,5.3,0,0,0,0,5c.86,1.7,2.26,3.34,3.44,5.17l-.74.64a22,22,0,0,1-4.6-4.72,6.83,6.83,0,0,1-1.17-3.55,8.05,8.05,0,0,1,.81-3.62,32.18,32.18,0,0,1,3.71-5.42c1.24-1.69,2.52-3.43,3.92-5.05Z"/><path class="cls-5" d="M1017.67,445.91c-.52-.09,21.75-3.81,21.75-3.81C1038.29,457.75,1021.58,459.4,1017.67,445.91Z"/><path class="cls-15" d="M949.83,659.26c43.49,13.92,85.38,14.83,125.17-1.28l10-33.7-131.59,5.77Z"/><path class="cls-5" d="M1074.16,552.59l-10.63,96.88a212.33,212.33,0,0,1-41.65,6.87,133.41,133.41,0,0,1-21.55-.5,93.07,93.07,0,0,1-35.05-10.62,84.61,84.61,0,0,1-9.87-6.38l19.45-78.15v-.07l7-28.25L986,515.72l32.8-33.1c9.38,8.45,27.83,9.65,46.28,1.85l1.35,10.2Z"/><path class="cls-6" d="M1074.16,552.59l-10.63,96.88a212.33,212.33,0,0,1-41.65,6.87c2.59-31.87,7.94-105.85,38.22-158.75l6.36-2.92Z"/><g class="cls-16"><path class="cls-14" d="M1012,494.78a25.62,25.62,0,0,0,10.9,10.89,30.49,30.49,0,0,0,14.76,2.95,51.07,51.07,0,0,0,15.19-3,85.4,85.4,0,0,0,14.46-6.79,44.2,44.2,0,0,1-13.35,9.5,41.64,41.64,0,0,1-16.19,4,28.62,28.62,0,0,1-16.33-4.17A21.33,21.33,0,0,1,1012,494.78Z"/></g><path class="cls-6" d="M1000.33,655.84a93.07,93.07,0,0,1-35.05-10.62c2.33-18.33,6.78-59,9.58-84.53v-.07c1.45-13.2,2.42-22.4,2.42-22.4l4.6-5.85,34.78-44.15C1019.71,550.87,1012.61,619.22,1000.33,655.84Z"/><path class="cls-2" d="M1018.83,482.62c-1.55,54-21.35,164.77-39.67,203.92-19-.4-54.28-3.5-66.88-8.95L954.16,562c-17.48,12.47-37.38,25.85-56.35,36.45-11.33,6.3-27.58,4.37-34.7-6.45l-32.18-49a50.55,50.55,0,0,0,7.25-4.52c9.8-7.28,16.4-17.5,21.6-29l32.5,38.75,55.5-45.88a48.39,48.39,0,0,1,21.6-10.22Z"/><path class="cls-2" d="M1064.83,484.57c-25.93,43.12-33.75,131.07-31.3,196.77,38.13,5.21,68.13-21.25,68.13-21.25l7.19-106.25,68.79-65.08a129.73,129.73,0,0,0,22.42-30l54.1-99.62-38.75-26.36-63.34,100.42-38.54,40.11a39.82,39.82,0,0,1-31,12.16Z"/><path class="cls-12" d="M1086.66,425.93c-1.25,8.33-9.35,14-16,14s-6.63-5.66-6.63-13.67,5.35-14.88,12-14.88S1088.05,416.64,1086.66,425.93Z"/><circle class="cls-17" cx="1052.42" cy="434.33" r="9.59"/><path class="cls-17" d="M1011.53,435a9.65,9.65,0,0,1-8.22,9.47,62.2,62.2,0,0,1,0-18.95C1008,426.14,1011.72,427.71,1011.53,435Z"/><rect class="cls-14" x="929.83" y="558.69" width="49.91" height="2.5" transform="translate(114.71 1280.64) rotate(-71.02)"/><rect class="cls-14" x="1080.95" y="549.47" width="56.42" height="2.5" transform="translate(474.42 1614.03) rotate(-85.57)"/><path class="cls-18" d="M859.78,509.47s0,.07,0,.1c-4.92,10.85-11.07,20.55-20,27.72l-7.63-13.2,27.6-14.57Z"/><path class="cls-11" d="M1071.78,426.57a8.26,8.26,0,0,1-1-4.7,7.36,7.36,0,0,1,2.08-4.65,5.39,5.39,0,0,1,5.1-1.58,6.13,6.13,0,0,1,3.85,3.13l-.75.62a7.07,7.07,0,0,0-3.47-1.59,3.75,3.75,0,0,0-3,1.19,6.89,6.89,0,0,0-1.74,3.2,11.59,11.59,0,0,0-.14,4.05Z"/><path class="cls-19" d="M1077.9,215.53l-33.87-15,27-61,19.53,8.62a15.69,15.69,0,0,1,8,20.69Z"/><rect class="cls-20" x="1058.07" y="170.2" width="22.89" height="37.03" transform="translate(464.59 1090.67) rotate(-66.16)"/><path class="cls-19" d="M1327.86,348.79l-8-3.52L1035.61,219.64l17.57-39.75L1336.28,305l9.15,4.05C1345.93,324.77,1340.93,338.19,1327.86,348.79Z"/><path class="cls-21" d="M1327.86,348.79l-8-3.52A227.11,227.11,0,0,1,1336.28,305l9.15,4.05C1345.93,324.77,1340.93,338.19,1327.86,348.79Z"/><path class="cls-19" d="M1367,444.78c-30.92-13.67-46.61-49.32-41.42-87.06a112.31,112.31,0,0,1,23.88-55.14c24.41-30.14,61.91-43.05,93.28-29.19,39.09,17.28,53.85,69.63,32.92,117S1406.06,462.05,1367,444.78Z"/><ellipse class="cls-5" cx="1404.86" cy="359.08" rx="57.42" ry="47.43" transform="translate(508.55 1498.9) rotate(-66.16)"/><path class="cls-21" d="M1381.65,411.58a36.17,36.17,0,0,1-4.66-2.46c23,6.72,49.68-8.1,61.62-35.11s4.92-56.79-15.5-69.25a37.82,37.82,0,0,1,5,1.79c24,10.59,33,42.68,20.15,71.7S1405.61,422.17,1381.65,411.58Z"/><rect class="cls-19" x="1210.6" y="-0.01" width="17.5" height="113.47" rx="7.9" transform="translate(-1.32 55.92) rotate(-2.63)"/><rect class="cls-19" x="1315.72" y="116.79" width="113.47" height="17.5" rx="7.9" transform="translate(175.43 808.56) rotate(-34.94)"/><path class="cls-19" d="M1280.39,132.41h0a8.79,8.79,0,0,1-5-11.34L1319.85,7.8a8.77,8.77,0,0,1,11.34-4.95h0a8.77,8.77,0,0,1,5,11.34l-44.41,113.27A8.77,8.77,0,0,1,1280.39,132.41Z"/></g></g></svg>