<svg xmlns="http://www.w3.org/2000/svg" viewBox="0 0 527 533.58"><defs><style>.cls-1{fill:#60aaaa;stroke:#fff;stroke-miterlimit:10;stroke-width:15px;}.cls-2{fill:#404040;}.cls-3,.cls-4{fill:#ffedbb;}.cls-3{stroke:#faab37;stroke-linecap:round;stroke-linejoin:round;stroke-width:10px;}.cls-5{fill:#faab37;}</style></defs><g id="Layer_2" data-name="Layer 2"><g id="Layer_1-2" data-name="Layer 1"><path class="cls-1" d="M7.5,193.62c1.26-6.74,2.48-13.49,3.8-20.22a201.29,201.29,0,0,1,48.2-97c29.51-33,65.94-54.46,109.19-64C206.84,4,244.47,6.31,281.16,19.92,336.61,40.47,376.2,78.2,400,132.1c13.91,31.46,18.63,64.69,15.65,99.6-1.22-.89-2.12-1.42-2.87-2.11-11.46-10.42-23-20.81-34.29-31.38a10.48,10.48,0,0,1-3.08-5.79c-4.33-32.12-16.42-60.82-37.34-85.67-23.93-28.44-53.9-47.5-90.32-55-60.87-12.5-113.52,3.83-156.31,48.87C58.26,135.6,45,178.35,47.76,226.07,49.17,250.71,58,273.38,69,295.16c19.78,38.91,46.09,73.24,75.8,104.87,20.51,21.84,42.61,42.18,63.83,63.35a11.42,11.42,0,0,1,3.2,7.13c.29,15.46.15,30.93.15,47.47-4.75-3.79-8.88-6.94-12.85-10.29-51-43-97.27-90.59-135.84-145.23-23.94-33.9-43.46-70-52.22-111.13-1.26-5.89-2.4-11.81-3.6-17.71Z"/><path class="cls-1" d="M294.5,518.62c-3-.83-5.93-1.63-8.87-2.51-23.48-7-38.67-28-38.81-53.83-.11-18.65,0-37.31,0-56v-5.91l-11.15,10L208.75,381,364,239.37c1.28,1.08,2.54,2.06,3.72,3.14q75.1,68.51,150.21,137a12.63,12.63,0,0,0,1.58,1.09v1l-27,28.65-11-9.92v3.83c0,20.32.22,40.65-.09,61C481,490,463.92,510.85,439.82,516.8c-2.12.53-4.21,1.21-6.32,1.82h-4a27.61,27.61,0,0,0-5.09-1q-61.17-.09-122.35,0a22.44,22.44,0,0,0-4.56,1Zm69.61-225.37c-25.38,23.16-50.6,46.14-75.73,69.21a6.46,6.46,0,0,0-1.64,4.31q-.14,48.23,0,96.44c0,9.44,6,15.27,15.4,15.29q62,.11,123.94,0c9.68,0,15.41-5.92,15.42-15.71q.07-47.71-.09-95.44a9.11,9.11,0,0,0-2.61-5.85c-8.32-7.92-16.89-15.59-25.38-23.33C397,323.25,380.68,308.35,364.11,293.25Z"/><path class="cls-2" d="M297.5,518.62a22.44,22.44,0,0,1,4.56-1q61.19-.09,122.35,0a27.61,27.61,0,0,1,5.09,1Z"/><path class="cls-3" d="M212.05,296.8A84.68,84.68,0,1,1,296.67,212,84.65,84.65,0,0,1,212.05,296.8ZM256.74,212A44.76,44.76,0,1,0,212.1,256.9,44.81,44.81,0,0,0,256.74,212Z"/><rect class="cls-4" x="328.45" y="372.99" width="71.34" height="71.35" rx="6"/><path class="cls-5" d="M393.8,379v59.35H334.45V379H393.8m0-12H334.45a12,12,0,0,0-12,12v59.35a12,12,0,0,0,12,12H393.8a12,12,0,0,0,12-12V379a12,12,0,0,0-12-12Z"/></g></g></svg>