<svg xmlns="http://www.w3.org/2000/svg" viewBox="0 0 58.39 79.4"><defs><style>.cls-1{fill:#b9df94;}.cls-2{fill:#8bc94d;}.cls-3{fill:#6ebb20;}.cls-4{fill:#eee;}.cls-5{fill:#e3e3e3;}.cls-6{fill:#a8d679;}.cls-7{fill:#d5d5d5;}.cls-8{fill:#f6f6f6;}.cls-9{fill:#c1f0ec;}.cls-10{fill:#49ced1;}.cls-11{fill:#ff9b00;}.cls-12{fill:#ffcf00;}</style></defs><g id="Layer_2" data-name="Layer 2"><g id="office"><polygon class="cls-1" points="37.91 30.63 20.48 35.68 3.07 30.63 3.07 71.95 20.48 75.97 37.91 71.95 55.33 75.97 55.33 35.68 37.91 30.63"/><polygon class="cls-2" points="20.48 41.48 3.07 37.98 3.07 54.58 20.48 53.3 20.48 41.48"/><polygon class="cls-2" points="3.07 56.98 3.07 71.95 20.48 75.97 20.48 55.45 3.07 56.98"/><polygon class="cls-2" points="20.48 35.68 3.07 30.63 3.07 34.71 20.48 38.86 20.48 35.68"/><polygon class="cls-3" points="30.29 46.28 20.48 41.48 20.48 53.3 30.29 46.28"/><polygon class="cls-3" points="20.48 75.97 37.91 71.95 37.91 43.5 20.48 55.45 20.48 75.97"/><polygon class="cls-3" points="20.48 35.68 20.48 38.86 32.78 44.49 37.91 40.82 37.91 30.63 20.48 35.68"/><polygon class="cls-4" points="20.48 53.3 3.07 54.58 3.07 56.98 20.48 55.45 20.48 53.3"/><polygon class="cls-4" points="20.48 38.86 3.07 34.71 3.07 37.98 20.48 41.48 20.48 38.86"/><polygon class="cls-5" points="20.48 38.86 20.48 41.48 30.29 46.28 20.48 53.3 20.48 55.45 37.91 43.5 37.91 40.82 32.78 44.49 20.48 38.86"/><polygon class="cls-6" points="55.33 75.97 37.91 71.95 37.91 30.63 55.33 35.68 55.33 75.97"/><polygon class="cls-7" points="25.58 51.95 37.91 60.47 37.91 57.65 27.76 50.46 25.58 51.95"/><polygon class="cls-8" points="37.91 57.65 55.33 61.42 55.33 64.4 37.91 60.47 37.91 57.65"/><polygon class="cls-8" points="37.99 40.5 37.99 44.43 55.33 45.08 55.33 41.48 37.99 40.5"/><polygon class="cls-9" points="37.91 71.95 20.48 75.97 20.48 78.69 21.29 78.5 37.91 74.66 37.99 74.68 37.99 71.97 37.91 71.95"/><polygon class="cls-9" points="56.31 33.2 38.89 28.15 37.99 27.89 37.99 30.66 55.33 35.68 55.33 75.97 37.99 71.97 37.99 74.68 54.53 78.5 58.39 79.4 58.39 75.97 58.39 35.68 58.39 33.81 56.31 33.2"/><polygon class="cls-9" points="37.91 30.63 37.99 30.66 37.99 27.89 37.91 27.86 36.92 28.15 20.48 32.92 20.48 35.68 37.91 30.63"/><polygon class="cls-9" points="3.07 71.95 3.07 30.63 20.48 35.68 20.48 32.92 4.05 28.15 0 26.98 0 30.63 0 71.95 0 73.95 2.26 74.48 19.68 78.5 20.48 78.69 20.48 75.97 3.07 71.95"/><path class="cls-10" d="M34.83,49.12c0,1.21,1.42,2.2,3.16,2.2v-4.4C36.25,46.92,34.83,47.9,34.83,49.12Z"/><path class="cls-10" d="M38,46.92v4.4c1.74,0,3.16-1,3.16-2.2S39.73,46.92,38,46.92Z"/><path class="cls-11" d="M54.54,16.82A16.83,16.83,0,0,0,37.71,0V7.76a9.06,9.06,0,1,1,0,18.12V49.12s7.94-12.69,10.94-17C55.3,22.66,54.54,16.82,54.54,16.82Z"/><path class="cls-12" d="M37.71,7.76V0A16.82,16.82,0,0,0,20.89,16.82s-.76,5.84,5.89,15.33c3,4.28,10.93,17,10.93,17V25.88a9.06,9.06,0,0,1,0-18.12Z"/></g></g></svg>