<svg xmlns="http://www.w3.org/2000/svg" viewBox="0 0 425.09 743.09"><g id="Layer_2" data-name="Layer 2"><g id="Layer_1-2" data-name="Layer 1"><path d="M301,369.41c-2-1.18-4.22-2-5.73-3.46Q156.28,228.33,17.4,90.58C-.86,72.48-5.08,48.15,6.32,27.23,22.52-2.48,62.31-9.35,87,14c21.06,19.89,41.32,40.63,61.9,61q129.35,128.19,258.7,256.39c7.73,7.67,13.75,16.27,16.05,27.05,3.71,17.37.46,33.35-11.83,46.39-15.87,16.84-32.42,33-48.74,49.45Q228.36,589.82,93.65,725.36c-8.18,8.23-17.37,14.32-28.92,16.68A52,52,0,0,1,9.31,717.13C-1.79,697.9.47,673,15.87,656.88,36,635.82,56.78,615.37,77.33,594.7Q186.86,484.48,296.42,374.31C297.47,373.26,298.45,372.15,301,369.41Z"/></g></g></svg>