<svg xmlns="http://www.w3.org/2000/svg" xmlns:xlink="http://www.w3.org/1999/xlink" width="36" height="36" viewBox="0 0 36 36">
    <defs>
        <path id="t8q808jtla" d="M0 0.135L26.865 0.135 26.865 27 0 27z"/>
    </defs>
    <g fill="none" fill-rule="evenodd">
        <g>
            <g>
                <g>
                    <g>
                        <g>
                            <path fill="#FFF" d="M26.273 16.105v-4.398c0-.349-.282-.631-.631-.631h-2.06c-.23-.827-.558-1.613-.972-2.344l1.457-1.457c.247-.247.247-.647 0-.893l-3.11-3.11c-.246-.246-.646-.246-.893 0l-1.457 1.456c-.731-.413-1.517-.74-2.343-.97v-2.06c0-.35-.283-.633-.632-.633h-4.398c-.349 0-.631.284-.631.632v2.06c-.827.23-1.613.558-2.345.972L6.801 3.27c-.247-.246-.647-.246-.894 0l-3.109 3.11c-.247.246-.247.647 0 .893l1.458 1.458c-.413.731-.741 1.517-.971 2.344H1.224c-.349 0-.632.282-.632.631v4.397c0 .35.283.632.632.632h2.06c.23.827.559 1.613.972 2.344L2.8 20.538c-.247.246-.247.647 0 .893l3.109 3.11c.247.246.647.246.894 0l1.457-1.458c.731.413 1.517.742 2.344.972v2.06c0 .348.282.631.631.631h4.398c.349 0 .632-.283.632-.631v-2.06c.826-.23 1.612-.559 2.343-.972l1.457 1.458c.247.246.647.246.893 0l3.11-3.11c.247-.246.247-.647 0-.893L22.61 19.08c.414-.732.742-1.518.972-2.345h2.06c.349 0 .631-.282.631-.631" transform="translate(-36 -182) translate(16 80) translate(0 96) translate(20 6) translate(4.5 4.154)"/>
                            <path fill="#FFEDBB" d="M19.266 13.906c0 3.221-2.612 5.832-5.833 5.832s-5.832-2.61-5.832-5.832c0-3.221 2.611-5.833 5.832-5.833 3.221 0 5.833 2.612 5.833 5.833" transform="translate(-36 -182) translate(16 80) translate(0 96) translate(20 6) translate(4.5 4.154)"/>
                            <path fill="#F9A01F" d="M13.433 8.666c-2.89 0-5.24 2.35-5.24 5.24s2.35 5.24 5.24 5.24 5.24-2.35 5.24-5.24-2.35-5.24-5.24-5.24m0 11.665c-3.543 0-6.425-2.882-6.425-6.425 0-3.542 2.882-6.425 6.425-6.425 3.543 0 6.425 2.883 6.425 6.425 0 3.543-2.882 6.425-6.425 6.425" transform="translate(-36 -182) translate(16 80) translate(0 96) translate(20 6) translate(4.5 4.154)"/>
                            <g transform="translate(-36 -182) translate(16 80) translate(0 96) translate(20 6) translate(4.5 4.154) translate(0 .339)">
                                <mask id="d25utmh6vb" fill="#fff">
                                    <use xlink:href="#t8q808jtla"/>
                                </mask>
                                <path fill="#2B8E8E" d="M8.259 22.153c.1 0 .2.025.29.076.698.394 1.442.702 2.212.917.257.071.434.304.434.57v2.06c0 .022.017.04.04.04h4.397c.022 0 .04-.018.04-.04v-2.06c0-.266.176-.499.433-.57.77-.215 1.514-.523 2.21-.917.232-.13.523-.09.71.097l1.458 1.457c.015.015.04.016.056 0l3.11-3.11c.015-.014.015-.04 0-.055l-1.458-1.457c-.188-.188-.227-.478-.097-.71.394-.696.703-1.44.918-2.212.07-.256.304-.433.57-.433h2.06c.021 0 .04-.018.04-.04V11.37c0-.022-.019-.04-.04-.04h-2.06c-.266 0-.5-.177-.57-.433-.215-.771-.524-1.515-.917-2.212-.13-.231-.091-.522.097-.71l1.456-1.456c.016-.016.016-.04 0-.057L20.54 3.352c-.015-.015-.04-.015-.056 0L19.026 4.81c-.188.188-.478.228-.71.097-.696-.394-1.44-.703-2.211-.917-.257-.071-.434-.304-.434-.57v-2.06c0-.022-.017-.04-.04-.04h-4.397c-.022 0-.04.018-.04.04v2.06c0 .266-.176.499-.433.57-.77.214-1.514.523-2.212.917-.231.13-.522.09-.71-.097L6.384 3.352c-.016-.016-.041-.015-.057 0L3.216 6.46c-.015.016-.015.04 0 .056l1.459 1.457c.188.189.227.479.096.71-.393.696-.701 1.44-.916 2.212-.071.256-.305.433-.57.433H1.223c-.022 0-.04.018-.04.04v4.397c0 .022.018.04.04.04h2.06c.266 0 .5.177.57.433.216.772.524 1.516.918 2.211.13.232.09.522-.097.71l-1.458 1.458c-.015.015-.015.04 0 .056l3.11 3.11c.013.013.042.012.056 0l1.457-1.458c.114-.114.265-.173.419-.173M15.632 27h-4.398c-.674 0-1.223-.549-1.223-1.224v-1.62c-.566-.182-1.116-.41-1.645-.681L7.22 24.62c-.462.462-1.269.462-1.73 0l-3.11-3.11c-.477-.477-.477-1.253 0-1.73l1.146-1.147c-.27-.528-.499-1.078-.682-1.644h-1.62C.549 16.99 0 16.44 0 15.766v-4.398c0-.674.55-1.223 1.224-1.223h1.62c.183-.566.411-1.116.682-1.644L2.38 7.354c-.477-.477-.477-1.253 0-1.73l3.109-3.11c.477-.477 1.254-.477 1.73 0l1.146 1.147c.53-.271 1.08-.5 1.646-.683V1.36c0-.675.549-1.224 1.223-1.224h4.398c.674 0 1.223.55 1.223 1.224v1.62c.566.182 1.116.41 1.645.681l1.146-1.145c.477-.478 1.254-.478 1.73 0l3.11 3.109c.477.477.477 1.254 0 1.731L23.34 8.501c.27.528.498 1.079.681 1.644h1.62c.675 0 1.224.55 1.224 1.224v4.398c0 .674-.55 1.223-1.224 1.223h-1.62c-.183.566-.411 1.116-.682 1.645l1.145 1.146c.478.477.478 1.253 0 1.73l-3.109 3.11c-.477.478-1.254.477-1.73 0L18.5 23.475c-.529.27-1.08.5-1.645.681v1.62c0 .675-.549 1.224-1.223 1.224" mask="url(#d25utmh6vb)"/>
                            </g>
                        </g>
                    </g>
                </g>
            </g>
        </g>
    </g>
</svg>
