<svg xmlns="http://www.w3.org/2000/svg" xmlns:xlink="http://www.w3.org/1999/xlink" width="258" height="228" viewBox="0 0 258 228">
    <defs>
        <path id="ivw3n0xzda" d="M0 0.87L157.894 0.87 157.894 109.019 0 109.019z"/>
        <path id="90s5k4iuwc" d="M1.175 0.508L10.799 0.508 10.799 10.131 1.175 10.131z"/>
        <path id="3u54o3la7e" d="M0.68 0.56L13.11 0.56 13.11 11.716 0.68 11.716z"/>
    </defs>
    <g fill="none" fill-rule="evenodd">
        <g>
            <g>
                <g>
                    <g>
                        <g>
                            <path fill="#949394" d="M20.648 16.353c-2.315 5.592-8.55 8.232-13.926 5.894-5.374-2.337-7.855-8.768-5.541-14.36C3.496 2.293 9.73-.345 15.106 1.993c5.376 2.338 7.857 8.766 5.542 14.36" transform="translate(-554 -331) translate(554 331) translate(44.972 14.202) translate(0 47.497) translate(136.772 68.386)"/>
                            <path fill="#CCCBCC" d="M21.08 15.306c-2.314 5.593-8.549 8.232-13.923 5.893C1.78 18.863-.7 12.433 1.615 6.841 3.93 1.247 10.165-1.392 15.539.946c5.376 2.339 7.857 8.767 5.542 14.36" transform="translate(-554 -331) translate(554 331) translate(44.972 14.202) translate(0 47.497) translate(136.772 68.386)"/>
                            <path fill="#F1EFEF" d="M16.721 13.41c-1.279 3.087-4.72 4.545-7.687 3.253-2.967-1.29-4.337-4.839-3.06-7.925 1.278-3.089 4.72-4.545 7.688-3.255 2.967 1.29 4.337 4.84 3.06 7.927" transform="translate(-554 -331) translate(554 331) translate(44.972 14.202) translate(0 47.497) translate(136.772 68.386)"/>
                        </g>
                        <path fill="#999998" d="M16.437 3.291L16.451 2.211M44.118 6.839l3.058 1.259-1.658 4.813-3.06-1.26c-1.11-.458-1.717-1.682-1.354-2.735l.344-.997c.363-1.054 1.559-1.539 2.67-1.08" transform="translate(-554 -331) translate(554 331) translate(44.972 14.202) translate(0 47.497)"/>
                        <path fill="#CCCBCC" d="M46.457 10.187l-.756 2.193c1.713 1.458 2.625 3.71 2.097 5.852l-9.752 35.27c.338-.038.686-.028 1.037.06.172.04.34.1.496.17.21.094.398.22.573.353l9.761-35.3c.804-3.25-.703-6.67-3.456-8.598" transform="translate(-554 -331) translate(554 331) translate(44.972 14.202) translate(0 47.497)"/>
                        <path fill="#999998" d="M22.672 1.65l-3.276-.45-.988 4.993 3.28.45c1.188.163 2.33-.589 2.545-1.683l.205-1.033c.216-1.093-.575-2.114-1.766-2.277" transform="translate(-554 -331) translate(554 331) translate(44.972 14.202) translate(0 47.497)"/>
                        <path fill="#CCCBCC" d="M19.045 2.973c-3.179.423-5.994 2.545-6.894 5.621l-9.374 35.62-.001.007c.36-.108.743-.155 1.133-.114.171.019.344.05.515.103.197.057.383.134.556.225l9.278-35.254c.581-1.98 2.301-3.414 4.335-3.917l.452-2.291z" transform="translate(-554 -331) translate(554 331) translate(44.972 14.202) translate(0 47.497)"/>
                        <g transform="translate(-554 -331) translate(554 331) translate(44.972 14.202) translate(0 47.497) translate(0 26.595)">
                            <mask id="tk9ekgg8ib" fill="#fff">
                                <use xlink:href="#ivw3n0xzda"/>
                            </mask>
                            <path fill="#3C4650" d="M152.896 17.862c2.877 8.452-.08 18.559-2.338 24.294-.003.004-.003.006-.004.01.592.139 1.18.32 1.757.572.62.27 1.198.599 1.739.971l.003-.006c2.477-6.208 5.747-17.328 2.444-27.052-2.1-6.181-6.523-10.821-13.144-13.792-24.322-10.893-47.228 24.629-73.765 65.765-2.215 3.434-4.449 6.896-6.7 10.358-16.28 25.02-33.744 29.004-43.751 24.82-8.461-3.536-12.402-12.798-10.042-23.594 2.213-10.12 4.866-21.051 6.731-28.552l1.074.29c.242.064.49-.077.555-.32l1.663-6.165c4.656.483 9.22-.456 13.121-2.794 4.513-2.706 7.702-7.027 8.974-12.168.344-1.39-.37-2.793-1.634-3.362-.157-.07-.323-.13-.496-.171-1.566-.389-3.146.566-3.535 2.13-.898 3.623-3.137 6.665-6.31 8.565-3.497 2.096-7.78 2.653-12.054 1.568l-.1.39-.011-.002.111-.388c-4.24-1.212-7.662-3.848-9.631-7.42-1.786-3.237-2.192-6.992-1.145-10.576.452-1.546-.436-3.166-1.983-3.618-.171-.05-.346-.084-.517-.101-1.376-.145-2.698.707-3.102 2.084C-.68 24.68-.1 30.018 2.443 34.626c2.196 3.983 5.666 7.091 9.934 9.015l-1.663 6.167c-.066.24.076.489.318.554l1.124.303c-1.871 7.532-4.544 18.538-6.772 28.733-2.771 12.675 2.052 23.63 12.288 27.911 2.594 1.084 5.612 1.711 8.935 1.71 11.224 0 25.921-7.151 39.463-27.965 2.257-3.466 4.492-6.932 6.71-10.37C97.303 32.667 120.476-3.24 141.796 6.327c5.617 2.518 9.35 6.398 11.099 11.535" mask="url(#tk9ekgg8ib)"/>
                        </g>
                    </g>
                    <path fill="#FF9B00" d="M122.088 168.005c0 9.925-8.047 17.97-17.97 17.97-9.927 0-17.973-8.045-17.973-17.97 0-9.926 8.046-17.971 17.972-17.971 9.924 0 17.97 8.045 17.97 17.971" transform="translate(-554 -331) translate(554 331) translate(44.972 14.202)"/>
                    <g transform="translate(-554 -331) translate(554 331) translate(44.972 14.202) translate(40.525 188.068)">
                        <mask id="xgt7en5jyd" fill="#fff">
                            <use xlink:href="#90s5k4iuwc"/>
                        </mask>
                        <path fill="#49CED1" d="M5.988 3.04c-1.257 0-2.28 1.023-2.28 2.28 0 1.255 1.023 2.279 2.28 2.279 1.256 0 2.278-1.024 2.278-2.28 0-1.256-1.022-2.278-2.278-2.278m0 7.09c-2.655 0-4.813-2.157-4.813-4.812 0-2.653 2.158-4.81 4.813-4.81 2.653 0 4.81 2.157 4.81 4.81 0 2.655-2.157 4.812-4.81 4.812" mask="url(#xgt7en5jyd)"/>
                    </g>
                    <path fill="#49CED1" d="M108.929 2.533c-1.256 0-2.28 1.022-2.28 2.278s1.024 2.28 2.28 2.28c1.256 0 2.278-1.024 2.278-2.28 0-1.256-1.022-2.278-2.278-2.278m0 7.09c-2.654 0-4.812-2.158-4.812-4.812 0-2.653 2.158-4.811 4.812-4.811 2.653 0 4.811 2.158 4.811 4.811 0 2.654-2.158 4.812-4.811 4.812" transform="translate(-554 -331) translate(554 331) translate(44.972 14.202)"/>
                    <path fill="#F89F20" d="M10.998 22.924c-1.257 0-2.28 1.023-2.28 2.28 0 1.256 1.023 2.279 2.28 2.279 1.256 0 2.278-1.023 2.278-2.28 0-1.256-1.022-2.28-2.278-2.28m0 7.093c-2.655 0-4.813-2.16-4.813-4.813 0-2.653 2.158-4.812 4.813-4.812 2.653 0 4.81 2.16 4.81 4.812 0 2.653-2.157 4.813-4.81 4.813" transform="translate(-554 -331) translate(554 331) translate(44.972 14.202)"/>
                    <path fill="#2C8D8D" d="M169.286 134.152c-1.256 0-2.28 1.024-2.28 2.28 0 1.256 1.024 2.28 2.28 2.28 1.256 0 2.278-1.024 2.278-2.28 0-1.256-1.022-2.28-2.278-2.28m0 7.092c-2.654 0-4.812-2.159-4.812-4.812 0-2.653 2.158-4.812 4.812-4.812 2.653 0 4.811 2.159 4.811 4.812 0 2.653-2.158 4.812-4.811 4.812M44.247 30.373L33.992 11.91c-.41-.737-.142-1.668.595-2.077l.034-.018c.738-.41 1.67-.144 2.077.594l10.255 18.46c.41.738.143 1.669-.595 2.078l-.034.02c-.738.408-1.668.142-2.077-.595" transform="translate(-554 -331) translate(554 331) translate(44.972 14.202)"/>
                    <g transform="translate(-554 -331) translate(554 331) translate(44.972 14.202) translate(164.633 161.473)">
                        <mask id="npjipxqm6f" fill="#fff">
                            <use xlink:href="#3u54o3la7e"/>
                        </mask>
                        <path fill="#FF9B00" d="M3.219.932l9.365 8.065c.634.552.705 1.518.157 2.158l-.027.03c-.548.64-1.507.71-2.143.158L1.208 3.28c-.636-.552-.707-1.52-.159-2.16l.027-.028C1.624.45 2.584.379 3.219.932" mask="url(#npjipxqm6f)"/>
                    </g>
                    <path fill="red" d="M125.262 44.029l3.214-11.976c.223-.815 1.045-1.286 1.837-1.053l.038.011c.79.233 1.251 1.083 1.028 1.899l-3.214 11.976c-.223.814-1.045 1.285-1.836 1.052l-.038-.011c-.79-.234-1.252-1.083-1.029-1.898M143.87 63.384l12.27-1.056c.835-.068 1.56.554 1.618 1.388l.002.04c.057.834-.574 1.566-1.41 1.634l-12.268 1.057c-.836.068-1.56-.554-1.619-1.388l-.002-.04c-.057-.834.573-1.566 1.41-1.635M138.992 50.181l9.745-7.525c.668-.511 1.614-.38 2.113.292l.024.031c.499.671.365 1.628-.302 2.138l-9.747 7.525c-.665.51-1.61.379-2.111-.291l-.023-.033c-.5-.67-.365-1.628.301-2.137" transform="translate(-554 -331) translate(554 331) translate(44.972 14.202)"/>
                    <path fill="#FFCF00" d="M143.83 165.558H24.344c-1.284 0-2.326-1.043-2.326-2.328v-9.122c0-1.285 1.042-2.326 2.326-2.326H143.83c1.287 0 2.328 1.04 2.328 2.326v9.122c0 1.285-1.041 2.328-2.328 2.328M129.471 119.561c-1.402-11.477 3.085-68.621-45.383-68.621-47.843 0-43.98 57.144-45.384 68.621-2.82 23.096-12.013 32.22-12.013 32.22h114.793s-9.19-9.124-12.013-32.22" transform="translate(-554 -331) translate(554 331) translate(44.972 14.202)"/>
                    <path fill="#FF9B00" d="M22.02 162.577v.654c0 1.284.836 2.326 1.87 2.326h120.397c1.032 0 1.87-1.042 1.87-2.326v-.654H22.018z" transform="translate(-554 -331) translate(554 331) translate(44.972 14.202)"/>
                    <path fill="#FFCF00" d="M83.94 57.36c-5.54 0-10.033-4.493-10.033-10.036 0-5.542 4.492-10.034 10.034-10.034 5.543 0 10.035 4.492 10.035 10.034 0 5.543-4.492 10.035-10.035 10.035m0-26.974c-9.355 0-16.94 7.584-16.94 16.94 0 9.355 7.585 16.94 16.94 16.94 9.356 0 16.94-7.585 16.94-16.94 0-9.356-7.584-16.94-16.94-16.94" transform="translate(-554 -331) translate(554 331) translate(44.972 14.202)"/>
                    <path fill="red" d="M135.528 68.638c0 8.29-6.72 15.01-15.009 15.01-8.289 0-15.01-6.72-15.01-15.01 0-8.288 6.721-15.01 15.01-15.01s15.01 6.722 15.01 15.01" transform="translate(-554 -331) translate(554 331) translate(44.972 14.202)"/>
                    <path fill="#FFF" d="M126.667 65.627h-3.137V62.49c0-1.039-.843-1.882-1.881-1.882l-2.258.001c-1.04 0-1.882.842-1.882 1.882v3.137h-3.139c-1.038 0-1.881.843-1.881 1.882v2.26c0 1.039.843 1.881 1.881 1.881h3.139v3.136c0 1.04.842 1.883 1.88 1.883l2.26-.001c1.038 0 1.88-.843 1.88-1.884V71.65h3.138c1.039 0 1.882-.844 1.882-1.882v-2.26c0-1.04-.843-1.881-1.882-1.881" transform="translate(-554 -331) translate(554 331) translate(44.972 14.202)"/>
                </g>
            </g>
        </g>
    </g>
</svg>
