<svg xmlns="http://www.w3.org/2000/svg" xmlns:xlink="http://www.w3.org/1999/xlink" width="273" height="240" viewBox="0 0 273 240">
    <defs>
        <path id="aq6xtc7k2a" d="M0 0.088L220.664 0.088 220.664 114.324 0 114.324z"/>
        <path id="9adfzmxeec" d="M0.929 0.396L105.818 0.396 105.818 108.333 0.929 108.333z"/>
        <path id="fmezas5kve" d="M0.927 0.774L6.386 0.774 6.386 18.149 0.927 18.149z"/>
    </defs>
    <g fill="none" fill-rule="evenodd">
        <g>
            <g>
                <g>
                    <g>
                        <g>
                            <g transform="translate(-710 -376) translate(466 231) translate(224 145) translate(20) translate(20 20) translate(0 65.893)">
                                <mask id="694xwhwb4b" fill="#fff">
                                    <use xlink:href="#aq6xtc7k2a"/>
                                </mask>
                                <path fill="#C1F0EC" d="M194.816 113.422c8.612-.569 17.518-3.937 22.507-10.98 4.99-7.043 4.552-18.133-2.414-23.226-5.524-4.038-14.61-4.718-16.296-11.349-.895-3.52.95-7.076 2.45-10.383 4.981-10.999 13.143-43.05-16.48-55.262-26.018-10.725-45.855 22.055-55.165 30.032-11.076 9.495-28.296 10.775-40.878 3.392-5.21-3.057-9.703-7.431-15.38-9.495-8.898-3.233-19.8.47-24.89 8.45-3.289 5.158-4.276 11.653-8.202 16.342C31.93 60.665 15.5 58.261 6.056 66.721c-8.166 7.316-7.838 21.478-.437 29.568 7.402 8.09 16.554 12.21 27.397 13.85 41.055 6.21 153.603 3.825 161.8 3.283" mask="url(#694xwhwb4b)"/>
                            </g>
                            <path fill="#49CED1" d="M82.2 145.228L16.772 102.36c-1.564-1.025-2.004-3.126-.976-4.691l24.547-37.47c1.027-1.565 3.128-2.002 4.692-.977l65.43 42.868c1.565 1.026 2.003 3.127.977 4.692L86.892 144.25c-1.026 1.565-3.127 2.002-4.691.977" transform="translate(-710 -376) translate(466 231) translate(224 145) translate(20) translate(20 20)"/>
                            <path fill="#324550" d="M86.475 139.053L20.727 95.974 26.03 87.881 91.779 130.959zM37.411 90.362L28.309 84.399 29.097 83.2 38.198 89.163z" transform="translate(-710 -376) translate(466 231) translate(224 145) translate(20) translate(20 20)"/>
                            <path fill="#49CED1" d="M82.667 49.379c-1.423 0-2.581 1.158-2.581 2.58 0 1.423 1.158 2.581 2.58 2.581 1.424 0 2.58-1.158 2.58-2.58 0-1.423-1.156-2.581-2.58-2.581m0 8.03c-3.004 0-5.448-2.446-5.448-5.45 0-3.003 2.444-5.448 5.449-5.448 3.003 0 5.449 2.445 5.449 5.449 0 3.003-2.446 5.448-5.45 5.448" transform="translate(-710 -376) translate(466 231) translate(224 145) translate(20) translate(20 20)"/>
                            <path fill="#2C8D8D" d="M188.226 186.27c-1.422 0-2.58 1.157-2.58 2.58 0 1.422 1.158 2.58 2.58 2.58 1.423 0 2.58-1.158 2.58-2.58 0-1.423-1.157-2.58-2.58-2.58m0 8.03c-3.004 0-5.448-2.446-5.448-5.45s2.444-5.448 5.448-5.448c3.004 0 5.448 2.444 5.448 5.447 0 3.005-2.444 5.45-5.448 5.45M231.207 48.72l-19.813 13.393c-.792.535-1.867.325-2.402-.466l-.025-.037c-.534-.792-.326-1.867.466-2.401l19.813-13.393c.792-.535 1.867-.325 2.401.466l.025.037c.535.792.326 1.868-.465 2.402M30.543 159.642l-20.199 12.805c-.807.51-1.875.269-2.387-.537l-.024-.04c-.51-.806-.271-1.875.537-2.385l20.198-12.804c.808-.512 1.876-.271 2.387.537l.024.037c.511.808.271 1.876-.536 2.387" transform="translate(-710 -376) translate(466 231) translate(224 145) translate(20) translate(20 20)"/>
                            <path fill="#FFCF00" d="M126.146 88.298s-4.234-.542-9.749 1.727c-3.843 1.581-7.146 4.22-9.782 7.43-10.518 12.818-53.424 64.674-58.992 71.401-6.317 7.634-6.844 18.162-3.947 21.848 1.284 1.635 3.232 2.786 5.605 2.951l.003.025 74.994 5.454 74.534-77.88 4.647-29.908s-76.49-3.048-77.313-3.048" transform="translate(-710 -376) translate(466 231) translate(224 145) translate(20) translate(20 20)"/>
                            <g transform="translate(-710 -376) translate(466 231) translate(224 145) translate(20) translate(20 20) translate(116.667 90.893)">
                                <mask id="tn5t8wxvid" fill="#fff">
                                    <use xlink:href="#9adfzmxeec"/>
                                </mask>
                                <path fill="#FF9B00" d="M86.793.452s-4.235-.541-9.749 1.726c-3.843 1.581-7.146 4.22-9.782 7.431-10.518 12.817-55.129 67.172-60.695 73.9-6.317 7.633-6.844 18.161-3.95 21.847 2.897 3.686 9.15 4.94 16.058-2.105 5.482-5.593 50.802-55.057 50.802-55.057l17.316-1.388c11.299 0 19.025-10.376 19.025-23.176 0-12.802-7.726-23.178-19.025-23.178" mask="url(#tn5t8wxvid)"/>
                            </g>
                            <path fill="#DE7D00" d="M215.715 114.552c0 8.247-4.934 14.93-11.021 14.93-6.086 0-11.02-6.683-11.02-14.93 0-8.245 4.934-14.928 11.02-14.928 6.087 0 11.021 6.683 11.021 14.928" transform="translate(-710 -376) translate(466 231) translate(224 145) translate(20) translate(20 20)"/>
                            <path fill="#FFCF00" d="M218.195 114.749c0 8.246-4.934 14.93-11.021 14.93-6.086 0-11.02-6.684-11.02-14.93 0-8.245 4.934-14.929 11.02-14.929 6.087 0 11.021 6.684 11.021 14.929" transform="translate(-710 -376) translate(466 231) translate(224 145) translate(20) translate(20 20)"/>
                            <path fill="#FF9B00" d="M70.308 170.271l-16.19-.58c-1.054-.04-1.615-1.264-.952-2.086l2.06-2.562c.253-.315.64-.492 1.045-.477l16.19.581c1.054.04 1.614 1.263.953 2.085l-2.061 2.562c-.254.314-.64.491-1.045.477" transform="translate(-710 -376) translate(466 231) translate(224 145) translate(20) translate(20 20)"/>
                            <path fill="#A25C00" d="M73.414 167.232c.521-.65.268-1.527-.377-1.895l-2.242 2.562c-.443.506-1.09.788-1.762.767l-16.102-.5c-.142.728.354 1.494 1.187 1.523l16.19.583c.404.013.792-.164 1.045-.479l2.06-2.56z" transform="translate(-710 -376) translate(466 231) translate(224 145) translate(20) translate(20 20)"/>
                            <path fill="#EEF9FA" d="M93.818 171.043l-16.19-.58c-1.055-.04-1.614-1.264-.953-2.087l2.061-2.561c.254-.315.64-.492 1.044-.477l16.192.581c1.053.038 1.613 1.263.951 2.085l-2.06 2.562c-.253.314-.641.491-1.045.477" transform="translate(-710 -376) translate(466 231) translate(224 145) translate(20) translate(20 20)"/>
                            <path fill="#324550" d="M96.924 168.004c.522-.65.267-1.527-.377-1.895l-2.241 2.562c-.444.506-1.09.788-1.763.767l-16.102-.5c-.142.728.354 1.494 1.186 1.523l16.192.582c.402.014.79-.163 1.044-.478l2.06-2.56z" transform="translate(-710 -376) translate(466 231) translate(224 145) translate(20) translate(20 20)"/>
                            <path fill="#49CED1" d="M117.328 171.815l-16.19-.582c-1.054-.038-1.614-1.263-.952-2.085l2.06-2.561c.253-.315.64-.492 1.045-.477l16.19.581c1.054.038 1.615 1.263.953 2.085l-2.06 2.562c-.254.314-.641.491-1.046.477" transform="translate(-710 -376) translate(466 231) translate(224 145) translate(20) translate(20 20)"/>
                            <path fill="#008988" d="M120.434 168.776c.522-.65.268-1.527-.377-1.895l-2.242 2.562c-.443.506-1.089.788-1.762.766l-16.102-.5c-.142.728.355 1.494 1.187 1.523l16.19.583c.404.013.792-.163 1.046-.478l2.06-2.56z" transform="translate(-710 -376) translate(466 231) translate(224 145) translate(20) translate(20 20)"/>
                            <path fill="#EEF9FA" d="M80.713 158.28l-16.19-.582c-1.054-.039-1.615-1.263-.953-2.085l2.06-2.561c.254-.314.641-.493 1.046-.477l16.19.58c1.054.04 1.613 1.264.951 2.085l-2.06 2.562c-.253.314-.64.492-1.044.477" transform="translate(-710 -376) translate(466 231) translate(224 145) translate(20) translate(20 20)"/>
                            <path fill="#324550" d="M83.818 155.24c.522-.65.269-1.526-.376-1.895l-2.242 2.563c-.443.505-1.09.787-1.762.766l-16.102-.5c-.143.728.353 1.494 1.187 1.523l16.19.583c.404.013.792-.164 1.045-.479l2.06-2.56z" transform="translate(-710 -376) translate(466 231) translate(224 145) translate(20) translate(20 20)"/>
                            <path fill="#EEF9FA" d="M104.223 159.051l-16.191-.58c-1.054-.04-1.613-1.264-.952-2.086l2.06-2.562c.254-.315.642-.492 1.045-.477l16.19.581c1.055.04 1.615 1.263.953 2.085l-2.06 2.562c-.254.314-.641.491-1.045.477" transform="translate(-710 -376) translate(466 231) translate(224 145) translate(20) translate(20 20)"/>
                            <path fill="#324550" d="M107.329 156.012c.522-.65.267-1.527-.377-1.895l-2.241 2.562c-.444.506-1.09.788-1.763.767l-16.102-.5c-.142.728.354 1.494 1.186 1.523l16.192.583c.402.013.79-.164 1.044-.479l2.06-2.56z" transform="translate(-710 -376) translate(466 231) translate(224 145) translate(20) translate(20 20)"/>
                            <path fill="#EEF9FA" d="M127.733 159.823l-16.19-.58c-1.054-.04-1.615-1.264-.953-2.087l2.06-2.561c.254-.315.641-.492 1.046-.477l16.19.581c1.054.038 1.615 1.263.952 2.085l-2.06 2.562c-.253.314-.64.491-1.045.477" transform="translate(-710 -376) translate(466 231) translate(224 145) translate(20) translate(20 20)"/>
                            <path fill="#324550" d="M130.84 156.784c.52-.65.267-1.527-.378-1.895l-2.242 2.562c-.443.506-1.089.788-1.762.767l-16.102-.5c-.142.728.354 1.494 1.187 1.523l16.19.582c.404.014.792-.163 1.046-.478l2.06-2.56z" transform="translate(-710 -376) translate(466 231) translate(224 145) translate(20) translate(20 20)"/>
                            <path fill="#EEF9FA" d="M91.118 146.287l-16.19-.58c-1.054-.04-1.615-1.264-.953-2.085l2.06-2.562c.254-.314.641-.493 1.045-.477l16.191.58c1.054.04 1.613 1.264.951 2.085l-2.06 2.562c-.253.314-.64.493-1.044.477" transform="translate(-710 -376) translate(466 231) translate(224 145) translate(20) translate(20 20)"/>
                            <path fill="#324550" d="M94.223 143.248c.522-.65.268-1.526-.376-1.895l-2.242 2.563c-.444.505-1.09.787-1.763.766l-16.101-.5c-.143.728.353 1.494 1.187 1.523l16.19.583c.402.014.792-.163 1.044-.479l2.06-2.56z" transform="translate(-710 -376) translate(466 231) translate(224 145) translate(20) translate(20 20)"/>
                            <path fill="#EEF9FA" d="M114.628 147.06l-16.191-.582c-1.054-.04-1.613-1.263-.951-2.085l2.06-2.561c.253-.314.64-.493 1.044-.478l16.19.581c1.054.04 1.615 1.263.953 2.085l-2.06 2.562c-.254.314-.641.491-1.045.477" transform="translate(-710 -376) translate(466 231) translate(224 145) translate(20) translate(20 20)"/>
                            <path fill="#324550" d="M117.734 144.02c.522-.65.268-1.526-.378-1.895l-2.241 2.563c-.443.505-1.09.787-1.762.766l-16.101-.5c-.143.728.353 1.494 1.185 1.523l16.19.583c.404.013.792-.164 1.046-.479l2.06-2.56z" transform="translate(-710 -376) translate(466 231) translate(224 145) translate(20) translate(20 20)"/>
                            <path fill="#EEF9FA" d="M138.138 147.831l-16.19-.58c-1.054-.04-1.615-1.264-.953-2.086l2.06-2.562c.254-.315.641-.492 1.046-.477l16.19.581c1.054.04 1.614 1.263.952 2.085l-2.06 2.562c-.253.314-.64.491-1.045.477" transform="translate(-710 -376) translate(466 231) translate(224 145) translate(20) translate(20 20)"/>
                            <path fill="#324550" d="M141.243 144.792c.523-.65.27-1.527-.376-1.895l-2.242 2.562c-.442.506-1.089.788-1.762.767l-16.102-.5c-.143.728.354 1.494 1.187 1.523l16.19.583c.404.013.792-.164 1.046-.479l2.06-2.56z" transform="translate(-710 -376) translate(466 231) translate(224 145) translate(20) translate(20 20)"/>
                            <path fill="#EEF9FA" d="M101.523 134.295l-16.19-.58c-1.055-.04-1.615-1.264-.953-2.085l2.06-2.562c.254-.314.641-.492 1.045-.477l16.19.58c1.055.04 1.614 1.264.953 2.086l-2.06 2.561c-.254.314-.642.493-1.045.477" transform="translate(-710 -376) translate(466 231) translate(224 145) translate(20) translate(20 20)"/>
                            <path fill="#324550" d="M104.628 131.257c.523-.65.268-1.527-.376-1.896l-2.242 2.563c-.444.505-1.09.787-1.763.766l-16.101-.5c-.143.728.353 1.494 1.186 1.523l16.191.583c.403.014.79-.162 1.044-.478l2.061-2.56z" transform="translate(-710 -376) translate(466 231) translate(224 145) translate(20) translate(20 20)"/>
                            <path fill="#EEF9FA" d="M125.032 135.067l-16.19-.58c-1.054-.04-1.614-1.264-.951-2.085l2.06-2.562c.253-.314.64-.493 1.044-.477l16.19.58c1.054.04 1.615 1.264.953 2.085l-2.06 2.562c-.254.314-.641.493-1.046.477" transform="translate(-710 -376) translate(466 231) translate(224 145) translate(20) translate(20 20)"/>
                            <path fill="#324550" d="M128.139 132.028c.521-.65.268-1.526-.378-1.895l-2.241 2.563c-.443.505-1.09.787-1.762.766l-16.103-.5c-.141.728.355 1.494 1.187 1.523l16.19.583c.404.014.792-.163 1.046-.479l2.06-2.56z" transform="translate(-710 -376) translate(466 231) translate(224 145) translate(20) translate(20 20)"/>
                            <path fill="#EEF9FA" d="M148.543 135.84l-16.19-.582c-1.055-.04-1.615-1.263-.953-2.085l2.06-2.561c.254-.314.641-.493 1.045-.478l16.192.581c1.053.04 1.613 1.263.95 2.085l-2.059 2.562c-.253.314-.64.491-1.045.477" transform="translate(-710 -376) translate(466 231) translate(224 145) translate(20) translate(20 20)"/>
                            <path fill="#324550" d="M151.648 132.8c.523-.65.268-1.526-.376-1.895l-2.242 2.562c-.444.506-1.089.788-1.763.767l-16.1-.5c-.144.728.353 1.494 1.185 1.523l16.191.583c.403.013.792-.164 1.044-.479l2.061-2.56zM91.942 123.837L109.509 101.495 172.648 104.13 154.605 126.094zM178.2 98.128h-.02l-62.288-1.61c-.396-.008-.71-.34-.7-.734.01-.396.336-.662.736-.7l62.29 1.61c.397.01.707.34.7.735-.012.39-.33.699-.719.699" transform="translate(-710 -376) translate(466 231) translate(224 145) translate(20) translate(20 20)"/>
                            <path fill="#F9F9F9" d="M119.275 95.926s3.259-16.355 10.151-35.51c6.967-19.36 15.47-28.514 15.47-28.514h52.415s-11.349 17.705-18.395 39.957c-7.568 23.896-4.994 25.479-4.994 25.479l-54.647-1.412z" transform="translate(-710 -376) translate(466 231) translate(224 145) translate(20) translate(20 20)"/>
                            <path fill="#324550" d="M123.577 96.753h-.02l-4.3-.111c-.211-.006-.41-.104-.54-.268-.133-.166-.185-.382-.144-.588 0 0 .305-1.537.928-4.22.089-.385.478-.624.861-.538.385.09.627.475.537.862-.348 1.497-.597 2.635-.746 3.34l3.443.09c.395.012.707.34.699.735-.011.389-.33.698-.718.698M133.552 51.078c-.103 0-.205-.021-.304-.068-.358-.166-.514-.593-.346-.95 1.253-2.7 2.602-5.321 4.008-7.794.195-.346.633-.464.979-.269.345.196.464.632.269.976-1.388 2.44-2.72 5.028-3.958 7.69-.12.26-.378.415-.648.415m-6.263 16.237c-.073 0-.152-.01-.224-.037-.379-.124-.581-.53-.456-.905.67-2.022 1.384-4.094 2.143-6.2.25-.694.5-1.376.754-2.044.142-.371.559-.548.927-.416.369.141.556.554.415.927-.25.658-.5 1.332-.746 2.02-.755 2.093-1.463 4.154-2.131 6.165-.1.3-.381.49-.682.49m-4.979 16.686c-.06 0-.124-.007-.186-.024-.382-.102-.61-.495-.508-.879.745-2.791 1.544-5.617 2.373-8.397.114-.381.516-.594.891-.483.38.113.595.513.484.891-.827 2.768-1.62 5.58-2.361 8.36-.086.321-.376.532-.693.532M142.231 35.987c-.145 0-.292-.044-.42-.135-.32-.233-.394-.682-.16-1.002 1.642-2.27 2.677-3.39 2.72-3.437.137-.145.326-.227.525-.227h4.303c.397 0 .717.319.717.715 0 .397-.32.718-.717.718h-3.98c-.373.427-1.234 1.451-2.407 3.071-.14.195-.36.297-.58.297M166.723 32.619h-8.76c-.397 0-.718-.322-.718-.718 0-.396.321-.715.718-.715h8.76c.397 0 .718.319.718.715 0 .396-.321.718-.718.718m17.525 0h-8.764c-.395 0-.715-.322-.715-.718 0-.396.32-.715.715-.715h8.764c.397 0 .717.319.717.715 0 .396-.32.718-.717.718M195.098 36.3c-.123 0-.246-.029-.36-.096-.342-.199-.459-.637-.26-.98.642-1.108 1.166-1.983 1.544-2.605h-3.014c-.397 0-.717-.32-.717-.717 0-.397.32-.717.717-.717h4.302c.262 0 .503.143.63.373.125.23.115.51-.026.73-.009.014-.851 1.334-2.195 3.656-.134.228-.374.357-.62.357M186.993 51.948c-.101 0-.204-.022-.301-.067-.36-.165-.516-.591-.35-.951 1.223-2.646 2.533-5.319 3.893-7.945.18-.354.617-.49.965-.309.351.181.49.616.308.966-1.348 2.608-2.65 5.262-3.864 7.89-.121.261-.38.416-.651.416m-6.645 16.327c-.078 0-.159-.013-.237-.04-.374-.131-.572-.54-.44-.915.948-2.711 2.002-5.497 3.135-8.276.15-.369.571-.544.936-.394.366.15.543.568.393.935-1.125 2.757-2.172 5.519-3.111 8.21-.103.296-.38.48-.676.48M175.3 85.16c-.056 0-.114-.006-.173-.02-.383-.096-.617-.485-.522-.87.619-2.504 1.413-5.373 2.36-8.527.112-.378.52-.595.892-.48.381.115.595.513.48.892-.94 3.132-1.726 5.977-2.34 8.46-.083.327-.374.545-.697.545M173.922 98.053h-.019l-4.3-.11c-.396-.01-.71-.339-.699-.735.01-.395.342-.71.735-.699l3.247.084c-.141-.842-.134-2.035.024-3.55.042-.396.392-.684.79-.637.393.041.68.395.638.788-.291 2.734.02 3.503.088 3.632.185.183.26.457.184.713-.092.306-.371.514-.688.514M141.994 97.229h-.018l-9.208-.238c-.396-.01-.708-.34-.699-.735.01-.39.329-.7.718-.7h.017l9.21.238c.396.011.708.34.698.736-.01.39-.33.699-.718.699m18.42.475h-.02l-9.207-.237c-.396-.01-.71-.34-.7-.736.012-.395.36-.725.736-.698l9.208.238c.395.01.709.34.699.735-.01.39-.329.698-.717.698" transform="translate(-710 -376) translate(466 231) translate(224 145) translate(20) translate(20 20)"/>
                            <path fill="#FE172D" d="M161.185 71.34l-4.576-7.216 10.35-7.217c.707-.491 1.026-1.29.713-1.783-.312-.493-1.137-.493-1.844 0l-10.35 7.217-4.576-7.217c-.312-.493-1.139-.493-1.844 0-.353.246-.61.57-.74.892-.128.322-.13.645.026.891l4.577 7.217-10.352 7.217c-.706.493-1.026 1.291-.713 1.783.156.246.44.37.774.37.333 0 .718-.124 1.07-.37l10.352-7.215 4.576 7.215c.312.493 1.138.493 1.843 0 .707-.492 1.027-1.29.714-1.783" transform="translate(-710 -376) translate(466 231) translate(224 145) translate(20) translate(20 20)"/>
                            <path fill="#FE172D" d="M158.097 46.51c-9.945 0-19.53 7.903-21.368 17.615-1.838 9.712 4.757 17.614 14.703 17.614 9.945 0 19.53-7.902 21.369-17.614 1.838-9.712-4.759-17.615-14.704-17.615m-6.93 36.629c-10.737 0-17.856-8.529-15.872-19.014 1.984-10.486 12.33-19.016 23.068-19.016 10.735 0 17.855 8.53 15.87 19.016-1.982 10.485-12.331 19.014-23.066 19.014" transform="translate(-710 -376) translate(466 231) translate(224 145) translate(20) translate(20 20)"/>
                            <g transform="translate(-710 -376) translate(466 231) translate(224 145) translate(20) translate(20 20) translate(148.81 .417)">
                                <mask id="20z87qz4tf" fill="#fff">
                                    <use xlink:href="#fmezas5kve"/>
                                </mask>
                                <path fill="#FF9B00" d="M4.436 16.608L6.371 2.693C6.498 1.744 5.83.892 4.878.788L4.832.784C3.88.68 3.005 1.367 2.878 2.316L.942 16.23c-.126.947.543 1.8 1.494 1.903l.044.004c.953.103 1.829-.582 1.956-1.53" mask="url(#20z87qz4tf)"/>
                            </g>
                            <path fill="#FF9B00" d="M124.624 29.09l-12.665-6.473c-.865-.44-1.92-.106-2.356.74l-.022.04c-.435.847-.088 1.888.778 2.324l12.664 6.474c.865.438 1.92.106 2.357-.74l.02-.04c.437-.847.09-1.888-.776-2.325M135.778 17.437l-7.06-12.128c-.484-.823-1.554-1.1-2.391-.619l-.04.023c-.836.482-1.122 1.54-.638 2.364l7.06 12.128c.484.823 1.556 1.1 2.393.62l.04-.024c.836-.48 1.12-1.54.636-2.364M224.766 172.37l-10.999-8.725c-.752-.59-1.85-.46-2.456.294l-.027.034c-.605.754-.485 1.844.267 2.435l11 8.726c.752.592 1.85.46 2.456-.293l.028-.036c.604-.753.483-1.843-.269-2.434" transform="translate(-710 -376) translate(466 231) translate(224 145) translate(20) translate(20 20)"/>
                        </g>
                    </g>
                </g>
            </g>
        </g>
    </g>
</svg>
