<svg xmlns="http://www.w3.org/2000/svg" viewBox="0 0 292.83 384"><defs><style>.cls-1{fill:#61abab;}.cls-2{fill:#fbbe5e;}</style></defs><g id="Layer_2" data-name="Layer 2"><g id="Layer_1-2" data-name="Layer 1"><path class="cls-1" d="M138.74,384c-1.92-.69-3.83-1.43-5.77-2.06-18.58-6-30.73-21.87-31.72-41.52,0-.35-.09-.71-.19-1.42h-88C4.35,339-.1,334.56,0,325.9.24,307.52,2.3,289.43,11.33,273a120.8,120.8,0,0,1,13.92-20.32c14.07-16.41,19.68-35.51,19.7-56.67q0-24.36,0-48.72c.06-44.89,27.09-82.61,69.66-97.22.46-.16.89-.42,1.61-.76-3.74-7.66-5-15.67-2.69-23.88,3.66-13.14,12.3-21.33,25.51-24.7A15.56,15.56,0,0,0,141,0h10.5c1.93.62,3.87,1.2,5.78,1.87a33.86,33.86,0,0,1,19,47.29c4.88,2.09,9.93,3.85,14.6,6.33,36,19.12,55.15,49.1,56.49,89.93.57,17.23-.07,34.49.21,51.72.25,16,2.8,31.6,12.16,45.21,3.46,5,7.19,9.91,11.05,14.64,17.07,20.88,22,45.42,21.59,71.51-.08,6.18-5.24,10.48-11.86,10.49q-31.11,0-62.22,0H191.67a105,105,0,0,1-1.85,10.62c-5.26,18.86-17.44,30.26-36.85,33.71-.28.05-.49.44-.73.67Zm130.72-67.61c-.61-17.26-5.77-32.57-16.62-45.82-2.14-2.61-4.13-5.34-6.24-8-11.5-14.28-18.57-30.53-20.09-48.75C225.34,200,225.38,185.93,225,172c-.32-11.73.37-23.55-.82-35.19-4.69-45.71-50.31-77.83-95-67.37-36.64,8.57-61.49,39.82-61.7,77.4-.12,20.36,0,40.74-.84,61.08A91.18,91.18,0,0,1,47.06,261.1c-3.77,4.81-7.54,9.63-11.13,14.59-8.76,12.09-12.25,25.87-13,40.7ZM123.8,339.14c.45,13,10.57,22.66,23.13,22.34,12-.3,21.93-10.52,21.59-22.34ZM146.12,22.5a11.25,11.25,0,1,0,11.36,11A11.39,11.39,0,0,0,146.12,22.5Z"/><path class="cls-2" d="M292.55,142.14a41.63,41.63,0,0,1-.33,6.34A11.21,11.21,0,0,1,270,146a122.32,122.32,0,0,0-8.69-44.9q-15.87-39.54-52.43-61.49c-4.83-2.89-7.12-7.4-6.25-12.14s4.4-8.56,9.25-9A13.55,13.55,0,0,1,219.71,20c38.5,23.14,62.11,56.8,70.48,101,1.32,7,1.78,14.1,2.64,21.16Z"/><path class="cls-2" d="M0,142.06C3.32,89,26.88,48,72.47,20.06c5.88-3.6,12.72-1.9,16,3.61s1.38,12.17-4.9,16q-40.8,24.63-55.4,70a117.82,117.82,0,0,0-5.61,35c-.1,7.91-4.59,13-11.4,12.93S0,152.23,0,144.31C0,143.56,0,142.81,0,142.06Z"/></g></g></svg>