<svg xmlns="http://www.w3.org/2000/svg" viewBox="0 0 173.85 173.85"><defs><style>.cls-1{isolation:isolate;}.cls-2{fill:#7dd0d3;}.cls-3{fill:#587273;mix-blend-mode:color-burn;}.cls-11,.cls-3{opacity:0.2;}.cls-4{fill:#e2fff2;}.cls-5{fill:#f29e1e;}.cls-6{fill:#fede4d;}.cls-7{fill:#426263;}.cls-8{fill:#f49f1e;}.cls-9{fill:#fff;opacity:0.6;}.cls-11,.cls-9{mix-blend-mode:screen;}.cls-10,.cls-11{fill:#c2e9d1;}</style></defs><g class="cls-1"><g id="Layer_2" data-name="Layer 2"><g id="layer1"><path class="cls-2" d="M173.85,86.93A86.93,86.93,0,1,1,20.26,31.15c1.6-1.91,3.28-3.76,5.06-5.53A86.92,86.92,0,0,1,173.85,86.93Z"/><path class="cls-3" d="M159.52,39.12V127a5.5,5.5,0,0,1-5.5,5.5H81.35L74.17,161.7c-.7,2.83-4.53,4.33-8.57,3.33s-6.74-4.09-6-6.92l6.3-25.63h-35a5.5,5.5,0,0,1-5.5-5.5V16.76a5.5,5.5,0,0,1,5.5-5.5h98.91A86,86,0,0,1,141,18.84,87.17,87.17,0,0,1,159.52,39.12Z"/><path class="cls-4" d="M23.32,22.66V123a5.5,5.5,0,0,0,5.5,5.5H152a5.5,5.5,0,0,0,5.5-5.5V22.66Z"/><rect class="cls-2" x="31.69" y="44.66" width="33.69" height="34.51"/><rect class="cls-2" x="73.58" y="44.66" width="33.69" height="34.51"/><rect class="cls-2" x="115.47" y="44.66" width="33.69" height="34.51"/><rect class="cls-2" x="31.69" y="84.14" width="33.69" height="34.51"/><rect class="cls-2" x="73.58" y="84.14" width="33.69" height="34.51"/><rect class="cls-2" x="115.47" y="84.14" width="33.69" height="34.51"/><path class="cls-5" d="M157.52,12.76a5.5,5.5,0,0,0-5.5-5.5H28.82a5.5,5.5,0,0,0-5.5,5.5v9.9h134.2Z"/><path class="cls-4" d="M147.66,15A3.35,3.35,0,1,1,151,18.3,3.35,3.35,0,0,1,147.66,15Z"/><path class="cls-4" d="M138.31,15a3.35,3.35,0,1,1,3.35,3.34A3.35,3.35,0,0,1,138.31,15Z"/><path class="cls-4" d="M129,15a3.35,3.35,0,1,1,3.34,3.34A3.35,3.35,0,0,1,129,15Z"/><rect class="cls-6" x="32.05" y="29.81" width="116.65" height="3.85"/><rect class="cls-6" x="32.05" y="36.68" width="116.65" height="3.85"/><rect class="cls-7" x="73.33" y="96.7" width="10.08" height="8.42" transform="translate(-38.32 152.95) rotate(-76.2)"/><path class="cls-8" d="M94.39,35.7a33.16,33.16,0,1,0,24.29,40.12A33.17,33.17,0,0,0,94.39,35.7ZM80.52,92.18a25,25,0,1,1,30.23-18.31A25,25,0,0,1,80.52,92.18Z"/><path class="cls-7" d="M57.55,154.11c-.69,2.83,2,5.93,6.05,6.93h0c4,1,7.87-.51,8.57-3.34l11.44-46.59c.7-2.83-2-5.93-6-6.92h0c-4-1-7.88.5-8.57,3.33Z"/><path class="cls-9" d="M62.2,62A25,25,0,1,1,80.52,92.18,25,25,0,0,1,62.2,62Z"/><path class="cls-10" d="M107.64,72.94c-.15.61-.33,1.2-.52,1.77A21.74,21.74,0,0,0,65,64.37c.09-.6.21-1.2.36-1.81a21.75,21.75,0,1,1,42.24,10.38Z"/><path class="cls-11" d="M54.27,60A33.16,33.16,0,0,0,74.55,98.83l-1.29,5.23c-2.17.45-3.83,1.69-4.26,3.46L57.55,154.11c-.69,2.83,2,5.93,6.05,6.93L94.39,35.7A33.17,33.17,0,0,0,54.27,60Z"/></g></g></g></svg>