<svg xmlns="http://www.w3.org/2000/svg" viewBox="0 0 484.02 362.09"><defs><style>.cls-1{fill:#6fc9ce;}</style></defs><g id="Layer_2" data-name="Layer 2"><g id="Layer_1-2" data-name="Layer 1"><path class="cls-1" d="M484,13.67c-2.45,8.19-5.1,16.33-7.32,24.59q-41.32,153.59-82.54,307.22c-2.67,9.95-9.49,12.5-18.09,6.67q-51.39-34.8-102.74-69.65c-1.28-.86-2.62-1.65-5.26-3.46-4.28,4.81-8.3,9.89-12.89,14.4q-32,31.49-64.27,62.72c-1,1-2,2-3.08,2.94-6.68,5.69-15.32,3-16.89-5.64-2.73-15-5-30.1-7.46-45.17-5.58-34.31-11.2-68.62-16.62-103-.5-3.16-1.92-4.39-4.63-5.52q-66.52-27.69-133-55.56c-.87-.37-1.75-.7-2.61-1.09-4.26-1.92-6.89-5.11-6.62-9.89.28-5,3.25-8,8-9.33q16.37-4.45,32.76-8.84Q254.55,58,468.34,1C477.09-1.36,480.77.3,484,8ZM454.49,39.92c-1,.73-2.09,1.38-3,2.18q-92.28,78.62-184.52,157.24c-11.83,10.08-23.65,20.18-35.76,30.51l146.58,99.37c.54-1.86,1-3.21,1.32-4.57Q397.35,256.84,415.59,189q19.91-74.19,39.74-148.41l.07-1.28ZM40.68,135.8c37.9,15.83,74.52,31.16,111.23,46.3,1.6.66,4.28.09,5.91-.86Q277.64,112.06,397.34,42.67c1-.6,2-1.37,3-2.06l-.38-.76ZM183,303.68h1c6.75-24,13.35-48.13,20.39-72.08a22.85,22.85,0,0,1,6.55-10.42Q291.75,151.81,373,82.8c1.2-1,2.32-2.13,3.48-3.19l-.78-1.07c-1.32.67-2.66,1.3-3.93,2Q270.71,139,169.66,197.44c-2.75,1.59-3.55,3.09-3,6.27,4.14,24.67,8.05,49.38,12.05,74.08C180.09,286.42,181.54,295.05,183,303.68Zm17.95,13.14.71,1,50.86-49.44L220.59,246.8C213.94,270.46,207.42,293.64,200.91,316.82Z"/></g></g></svg>