<svg width="543" height="562" xmlns="http://www.w3.org/2000/svg" xmlns:xlink="http://www.w3.org/1999/xlink">
    <defs>
        <path id="a" d="M0 0h193.127v406.457H0z"/>
        <path id="c" d="M0 613.52h662.151V0H0z"/>
    </defs>
    <g fill="none" fill-rule="evenodd">
        <path fill="#D6F1F4" d="M-28-437h580v959H-28z"/>
        <g transform="translate(-84.663 -.52)">
            <g transform="translate(436.836)">
                <mask id="b" fill="#fff">
                    <use xlink:href="#a"/>
                </mask>
                <path d="M3.402 204.648c-4.935-8.351-4.46-19.59 1.162-27.496 5.621-7.906 16.08-12.045 25.59-10.126-3.133-3.386-2.943-9.3.4-12.478-11.066-12.45-9.06-32.372-.531-46.68 14.798-24.82 47.721-37.123 75.17-28.089-1.147-10.154 7.372-20.37 17.567-21.07-4.384-5.487-5.118-13.274-3.188-20.027 1.929-6.754 6.213-12.604 11.04-17.706C146.392 4.296 171.798-5.71 192.823 3.52l.303 395.23c-23.423-4.793-46.77 9.888-70.551 7.428-23.571-2.438-43.368-18.624-59.434-36.042a293.184 293.184 0 0 1-29.04-37.064c-6.18-9.348-11.888-19.2-14.804-30.02-3.814-14.15-2.65-29.1-3.859-43.706-1.45-17.5-3.103-39.58-12.037-54.697" fill="#F5FDFF" mask="url(#b)"/>
            </g>
            <path d="M335.674 266.089c0-21.574-16.247-39.347-37.18-41.793a41.865 41.865 0 0 0 4.634-19.185c0-13.397-6.272-25.323-16.033-33.032a56.146 56.146 0 0 0 11.235-33.78c0-31.164-25.282-56.426-56.468-56.426-22.086 0-41.197 12.677-50.477 31.139-6.327-9.326-16.593-15.766-28.41-16.936 4.171-8.65 6.51-18.35 6.51-28.595 0-36.422-29.548-65.947-65.998-65.947-7.24 0-14.2 1.181-20.718 3.334v405.739c8.191 23.118 32.804 39.42 57.664 44.282 40.785 7.976 82.49-7.095 119.61-25.769 10.02-5.04 20.116-10.53 27.607-18.876 16.037-17.865 16.738-44.525 14.102-68.38-1.254-11.345-3.062-22.604-5.237-33.8 21.879-1.521 39.159-19.726 39.159-41.975" fill="#F5FDFF"/>
            <path d="M174.734 329.767h-73.572V220.67c0-14.292 11.446-25.877 25.564-25.877h44.638c1.861 0 3.37 1.527 3.37 3.411v131.563zM427.64 334.369h-73.573v-109.03c0-14.328 11.476-25.945 25.632-25.945h44.57c1.861 0 3.37 1.528 3.37 3.412v131.563z" fill="#59B2A1"/>
            <path d="M485.884 314.43h-73.572V182.865c0-1.884 1.508-3.411 3.37-3.411h39.555c16.926 0 30.647 13.889 30.647 31.021V314.43zM619.234 338.97H508.875V207.407a3.404 3.404 0 0 1 3.396-3.411h103.566a3.404 3.404 0 0 1 3.397 3.411V338.97z" fill="#59B2A1"/>
            <mask id="d" fill="#fff">
                <use xlink:href="#c"/>
            </mask>
            <path fill="#F9EDD4" mask="url(#d)" d="M167.07 309.828h55.18V118.103h-55.18z"/>
            <path fill="#DDCCA6" mask="url(#d)" d="M200.791 309.828h19.926V118.103h-19.926z"/>
            <path fill="#00908F" mask="url(#d)" d="M164.005 118.103h59.778V113.5h-59.778z"/>
            <path fill="#00605D" mask="url(#d)" d="M164.005 118.103h38.319V113.5h-38.319z"/>
            <path d="M308.084 151.846H216.12V136.44c0-.81.692-1.465 1.546-1.465h88.874c.853 0 1.545.655 1.545 1.465v15.406z" fill="#F9EDD4" mask="url(#d)"/>
            <path d="M219.184 151.846h-3.065v-15.431c0-.796.661-1.44 1.477-1.44h1.588v16.871z" fill="#CCB78D" mask="url(#d)"/>
            <path fill="#00B1FF" mask="url(#d)" d="M216.119 285.287h91.965V154.914H216.12z"/>
            <path fill="#007493" mask="url(#d)" d="M216.119 171.786v111.967h84.301zM308.084 262.28v-22.5l-64.734-83.332h-18.035z"/>
            <path fill="#F9EDD4" mask="url(#d)" d="M213.053 173.32h98.097v-6.136h-98.097zM213.053 190.191h98.097v-6.135h-98.097zM213.053 205.53h98.097v-6.136h-98.097zM213.053 222.401h98.097v-6.135h-98.097zM213.053 237.74h98.097v-6.136h-98.097z"/>
            <path fill="#CCB78D" mask="url(#d)" d="M223.783 173.32h3.065v-6.136h-3.065zM223.783 190.191h3.065v-6.135h-3.065zM223.783 205.53h3.065v-6.136h-3.065zM223.783 222.401h3.065v-6.135h-3.065zM223.783 237.74h3.065v-6.136h-3.065zM280.495 173.32h3.065v-6.136h-3.065zM280.495 190.191h3.065v-6.135h-3.065zM280.495 205.53h3.065v-6.136h-3.065zM280.495 222.401h3.065v-6.135h-3.065zM280.495 237.74h3.065v-6.136h-3.065z"/>
            <path fill="#F9EDD4" mask="url(#d)" d="M213.053 303.693h98.097v-52.15h-98.097z"/>
            <path fill="#CCB78D" mask="url(#d)" d="M213.053 254.611h98.097v-4.601h-98.097zM213.053 282.22h98.097v-4.602h-98.097z"/>
            <path fill="#D8C7A3" mask="url(#d)" d="M280.495 303.693h3.065v-26.075h-3.065z"/>
            <path d="M249.84 302.159h-21.46v-17.576c0-1.306 1.07-2.363 2.389-2.363h16.682c1.32 0 2.388 1.057 2.388 2.363v17.576zM278.962 302.159h-21.459v-17.576c0-1.306 1.07-2.363 2.389-2.363h16.681c1.32 0 2.389 1.057 2.389 2.363v17.576z" fill="#058BAF" mask="url(#d)"/>
            <path fill="#F9EDD4" mask="url(#d)" d="M282.027 250.01h16.86v-95.096h-16.86zM225.315 250.01h16.86v-95.096h-16.86z"/>
            <path d="M308.756 156.448h-94.841a.863.863 0 0 1-.862-.865v-4.407c0-.477.386-.863.862-.863h94.841c.476 0 .86.386.86.863v4.407a.863.863 0 0 1-.86.865M314.887 251.543H206.25a.863.863 0 0 1-.862-.863v-4.408c0-.477.387-.864.862-.864h108.636c.476 0 .861.387.861.864v4.408a.862.862 0 0 1-.861.863M314.887 279.152H206.25a.863.863 0 0 1-.862-.864v-4.407c0-.477.387-.864.862-.864h108.636c.476 0 .861.387.861.864v4.407a.862.862 0 0 1-.861.864" fill="#00908F" mask="url(#d)"/>
            <path d="M229.053 156.448h-21.27a.863.863 0 0 1-.86-.865v-4.407c0-.477.384-.863.86-.863h21.27c.476 0 .86.386.86.863v4.407a.863.863 0 0 1-.86.865M230.593 251.543h-24.35a.859.859 0 0 1-.854-.863v-4.408c0-.477.382-.864.854-.864h24.35c.471 0 .853.387.853.864v4.408a.859.859 0 0 1-.853.863M230.593 279.152h-24.35a.859.859 0 0 1-.854-.864v-4.407a.86.86 0 0 1 .854-.864h24.35a.86.86 0 0 1 .853.864v4.407a.859.859 0 0 1-.853.864" fill="#00605D" mask="url(#d)"/>
            <path fill="#058BAF" mask="url(#d)" d="M223.783 269.95h7.663v-13.805h-7.663zM240.643 269.95h7.664v-13.805h-7.664zM255.97 269.95h7.664v-13.805h-7.664zM272.83 269.95h7.665v-13.805h-7.664z"/>
            <path fill="#00B1FF" mask="url(#d)" d="M289.691 269.95h7.664v-13.805h-7.664z"/>
            <path d="M272.243 296.155c101.648-1.231 159.198 6.35 237.534 16.512 63.623 8.253 51.605 6.279 114.675 21.14 13.014 3.067 14.81 107.848 6.925 108.707-60.733 6.611-109.595 5.508-170.95 6.443-143.932 2.194-237.876 4.388-381.807 6.582-4.176.064-1.65-109.235 6.6-134.117 65.729-15.105 115.857-24.405 187.023-25.267" fill="#35E599" mask="url(#d)"/>
            <path d="M624.447 334.544c-63.098-14.847-51.074-12.873-114.724-21.119-48.073-6.226-88.324-11.483-135.73-14.334 32.78 6.547 82.528 18.225 123.919 35.334 47.971 19.83 107.17 55.575 138.167 75.1.283-31.18-3.467-73.06-11.632-74.98" fill="#21C178" mask="url(#d)"/>
            <path d="M299.837 386.268c-35.813-18.293-84.184-44.226-131.196-55.109-27.873-6.451-62.692-1.001-86.425 4.506-5.802 38.074-7.212 119.93-3.597 119.874 143.933-2.19 237.876-4.382 381.808-6.573 61.356-.934 110.218.168 170.951-6.435 4.599-.5 5.903-36.295 3.61-66.658-26.158 20.738-71.948 48.232-133 50.718-99.067 4.032-166.338-22.032-202.15-40.323" fill="#21C178" mask="url(#d)"/>
            <path d="M632.675 355.146c-24.732-.997-58.334-3.431-91.565-9.242-51.792-9.055-149.786-37.235-207.956-49.36-18.654-.507-38.733-.657-60.911-.39-29.565.359-55.496 2.178-80.427 5.26 39.072 1.261 115.869 5.606 181.404 20.58 92.34 21.097 0 63.293-50.367 75.952-38.35 9.638-180.516 19.276-246.174 23.326-.215 19.716.414 34.29 1.94 34.267 116.459-1.775 200.194-3.55 304.161-5.325 20.245-15.306 42.071-33.334 52-46.643 20.987-28.13 12.592-43.601 12.592-43.601s119.386 34.55 188.722 45.169c-.018-16.698-1.14-35.761-3.419-49.993" fill="#A8E237" mask="url(#d)"/>
            <path fill="#64767A" mask="url(#d)" d="M93.498 406.457h536.465v-7.669H93.498z"/>
            <path d="M269.765 434.066h-18.393v-50.383c0-5.211 4.118-9.435 9.197-9.435 5.079 0 9.196 4.224 9.196 9.435v50.383zM343.338 434.066h-18.393v-50.383c0-5.211 4.118-9.435 9.196-9.435 5.08 0 9.197 4.224 9.197 9.435v50.383zM418.443 434.066H400.05v-50.383c0-5.211 4.118-9.435 9.197-9.435 5.078 0 9.196 4.224 9.196 9.435v50.383zM490.482 434.066H472.09v-50.383c0-5.211 4.118-9.435 9.197-9.435 5.08 0 9.196 4.224 9.196 9.435v50.383zM565.587 434.066h-18.393v-50.383c0-5.211 4.118-9.435 9.197-9.435 5.079 0 9.196 4.224 9.196 9.435v50.383z" fill="#8EA0A5" mask="url(#d)"/>
            <path d="M366.374 429.89c10.769 1.16 21.457 2.928 32.319 3.303 13.84.478 27.617-1.316 41.34-2.772 69.933-7.422 127.919-8.011 197.323 1.913 9.891 50.058 1.964 149.685.07 150.647-1.496.76-185.443 1.639-282.501 1.872-69.012.165-138.062 2.298-207.009 0-29.657-.989-36.59.198-64.241-6.012-.762-28.044-.912-53.319-.452-81.367.236-14.362-1.79-51.105 1.199-52.485 11.022-5.089 17.307-1.354 29.98-.699 16.147.837 32.36.402 48.472-.655 32.53-2.134 64.603-7.036 96.863-10.715 35.226-4.018 71.152-6.852 106.637-3.03" fill="#81F2D7" mask="url(#d)"/>
            <path d="M347.383 465.071c28.774-8.547 61.136-5.884 87.884 7.229 8.226 4.033 16.047 9.046 24.995 11.363 10.552 2.732 22.24 1.365 31.753-3.714-17.85 9.856-36.807 20.011-57.521 20.07-23.22.067-44.25-12.556-67.063-16.618-12.654-2.253-25.844-1.813-38.295 1.278-7.973 1.978-15.78 5.047-24.024 5.257-6.514.167-15.702-2.164-18.486-8.258 3.675-1.975 9.791-1.033 14.208-1.7 5.33-.807 10.52-2.28 15.614-3.929 10.425-3.377 20.411-7.852 30.935-10.978" fill="#68E0C9" mask="url(#d)"/>
            <path d="M301.536 445.92c20.45 9.785 25.824 38.27 16.997 59.13 9.28-1.325 18.94 5.85 20.34 15.108 6.849-22.092 36.152-33.736 56.324-22.38-1.412-8.266 2.66-16.841 9.036-22.296 6.376-5.454 14.74-8.127 23.073-9.15 12.65-1.552 26.14.641 36.43 8.153 15.138 11.053 20.584 31.029 22.532 49.655a212.303 212.303 0 0 1-.123 45.263c-.522 4.73-1.315 9.71-4.358 13.372-4.24 5.103-11.532 6.199-18.144 6.809-95.929 8.86-192.846-9.733-288.75-.593-2.74.262-5.78.465-7.96-1.216-1.573-1.213-2.35-3.166-3.04-5.027-7.35-19.831-12.703-41.828-6.075-61.91 6.683-20.255 27.765-34.398 48.845-28.757.84-38.426 66.066-59.946 94.873-46.16" fill="#0D4C29" mask="url(#d)"/>
            <path d="M486.268 524.031c-1.31-12.557-4.213-25.722-10.582-36.367-9.88-3.615-23.577-4.744-40.893 2.005-36.601 14.266-21.866 51.355-21.866 51.355s-6.654-10.937-19.965-6.657c-13.309 4.28-12.358 18.545-12.358 18.545-1.901-4.755-17.112-14.741-33.749-12.364-16.637 2.379-24.242 19.497-24.242 19.497s3.802-23.776-4.754-32.335c-8.555-8.56-20.914-4.755-20.914-4.755s10.457-12.84 10.457-35.664-33.748-33.286-33.748-33.286l-44.702 3.075c-12.841 8.672-21.978 20.594-22.289 34.84-21.079-5.65-42.162 8.516-48.845 28.803-6.628 20.114-1.274 42.147 6.075 62.01.69 1.864 1.467 3.82 3.04 5.036 2.18 1.683 5.22 1.479 7.96 1.217 95.904-9.155 192.821 9.468 288.75.594 6.612-.611 13.904-1.709 18.144-6.82 3.043-3.667 3.837-8.656 4.358-13.393a212.984 212.984 0 0 0 .123-45.336" fill="#083018" mask="url(#d)"/>
            <path d="M403.808 541.193c5.159-13.109 23.168-22.634 41.27-21.829 3.974-13.74 28.638-21.188 44.091-13.314 14.62-10.263 30.501-22.97 28.056-37.918-1.314-8.029-7.878-15.038-10.334-22.913-5.3-16.998 9.936-34.397 29.48-43.762 9.872-4.73 21.476-8.088 33.098-7.095 11.622.994 22.938 7.243 25.018 15.923 12.485-5.142 26.678-10.45 40.334-7.443 19.93 4.388 26.268 23.089 27.726 38.707 3.88 41.545-2.858 83.194-9.903 124.502-.687 4.03-1.431 8.182-4.132 11.698-3.398 4.424-9.5 7.295-15.77 9.238-13.725 4.252-28.906 4.824-43.741 4.996a957.311 957.311 0 0 1-124.773-6.706c-30.142-3.61-72.904-12.363-60.42-44.084" fill="#146038" mask="url(#d)"/>
            <path d="M633.356 402.842c-13.625-3.006-27.784 2.3-40.24 7.443-2.076-8.68-13.365-14.93-24.96-15.923-11.594-.994-23.172 2.366-33.021 7.096-19.498 9.364-34.698 26.763-29.41 43.761 2.449 7.876 9 14.884 10.31 22.913 2.44 14.948-13.406 27.656-27.991 37.918-4.727-2.414-10.319-3.383-15.914-3.176 6.713 9.647 16.701 23.33 25.177 32.233l14.276 14.989s-11.42-7.852-30.69-1.427c-12.053 4.017-12.66 23.389-11.423 37.339a953.336 953.336 0 0 0 118.172 5.975c14.801-.172 29.947-.745 43.639-4.996 6.256-1.943 12.344-4.814 15.734-9.238 2.694-3.516 3.436-7.668 4.121-11.698 7.03-41.307 13.752-82.957 9.881-124.502-1.456-15.618-7.777-34.319-27.661-38.707" fill="#083018" mask="url(#d)"/>
            <path d="M87.367 552.169s6.58-78.894 35.868-136.33c29.287-57.436 99.857-102.832 117.303-92.183 16.96 10.35-1.85 92.155-42.2 141.666-40.349 49.511-88.85 86.261-110.97 86.847" fill="#27965F" mask="url(#d)"/>
            <path d="M150.493 378.849c-8.217 10.068-20.205 25.502-25.948 36.847C95.439 473.19 88.9 552.169 88.9 552.169c21.983-.587 70.183-37.375 110.282-86.938 9.452-11.681 17.712-25.159 24.6-39.073-27.74 7.284-69.028 21.642-69.028 21.642-.436-7.433-1.43-50.097-4.261-68.951" fill="#156039" mask="url(#d)"/>
            <path d="M103.566 532.23a.874.874 0 0 1-.802-1.213 805.192 805.192 0 0 1 111.802-188.65.87.87 0 0 1 1.224-.139c.377.3.439.85.139 1.227a803.4 803.4 0 0 0-111.56 188.24.872.872 0 0 1-.803.534M137.282 500.02a.862.862 0 0 1-.607-.25.875.875 0 0 1-.012-1.232 580.713 580.713 0 0 0 82.446-106.997.863.863 0 0 1 1.19-.296c.409.248.54.782.294 1.195A582.518 582.518 0 0 1 137.9 499.759a.863.863 0 0 1-.618.26" fill="#156039" mask="url(#d)"/>
            <path d="M91.965 579.633s46.908-36.597 94.842-51.295c47.934-14.697 112.501-3.189 116.487 10.69 3.874 13.494-51.51 45.595-101.328 50.901-49.817 5.305-97.234.195-110-10.296" fill="#27965F" mask="url(#d)"/>
            <path d="M93.498 579.733c8.402 6.942 31.87 11.53 61.137 12.314 15.26-8.674 36.614-21.82 52.138-35.416 15.285-13.387 29.258-26.332 38.468-35.008-18.674-.662-39.154 1.144-57.256 6.726-47.754 14.723-94.487 51.384-94.487 51.384" fill="#156039" mask="url(#d)"/>
            <path d="M113.424 575.176c52.79-20.687 108.659-34.663 165.538-41.413" stroke="#38C16F" stroke-width="2" stroke-linecap="round" stroke-linejoin="round" mask="url(#d)"/>
            <path d="M82.367 582.845S54.03 509.209 55.215 444.978c1.185-64.232 44.35-135.563 64.5-133.576 19.59 1.933 38.296 83.484 23.825 145.403-14.47 61.917-41.73 115.922-61.173 126.04" fill="#39BC6E" mask="url(#d)"/>
            <path d="M88.004 538.682a3055.982 3055.982 0 0 0-11.366 22.606c4.166 13.341 7.319 21.557 7.319 21.557 19.596-10.22 47.07-64.767 61.655-127.306 0 0-43.771 55.903-57.608 83.143" fill="#17773E" mask="url(#d)"/>
            <path d="M82.769 581.705s30.562-73.049 75.98-118.677c45.417-45.629 126.166-67.074 139.381-51.563 12.848 15.08-30.18 87.127-83.615 121.804-53.435 34.677-110.645 54.699-131.746 48.436" fill="#39BC6E" mask="url(#d)"/>
            <path d="M81.345 556.77a.885.885 0 0 1-.882-.747c-6.278-43.216-4.857-91.318 4.47-151.38 3.466-22.31 8.208-47.944 20.689-69.827a.904.904 0 0 1 1.212-.338c.43.234.586.763.346 1.182-12.336 21.63-17.04 47.083-20.483 69.243-9.301 59.89-10.72 107.832-4.467 150.876a.873.873 0 0 1-.885.991M89.779 544.5c-.036 0-.071 0-.107-.006a.873.873 0 0 1-.766-.972c3.784-30.947 10.523-61.93 17.04-91.895 6.2-28.508 12.612-57.985 16.46-87.357a.884.884 0 0 1 .983-.752c.48.062.82.5.757.977-3.857 29.444-10.276 58.958-16.485 87.5-6.508 29.925-13.238 60.87-17.013 91.738a.875.875 0 0 1-.87.767" fill="#72E8A5" mask="url(#d)"/>
            <path d="M110.359 556.77c34.507-44.5 76.696-83.069 124.153-113.501M145.612 544.5a816.239 816.239 0 0 0 88.9-62.886" stroke="#72E8A5" stroke-width="2" stroke-linecap="round" stroke-linejoin="round" mask="url(#d)"/>
            <path d="M660.618 587.84s-30.561-73.048-75.98-118.677C539.22 423.535 458.473 402.09 445.258 417.6c-12.848 15.08 30.18 87.127 83.615 121.804 53.436 34.677 110.645 54.698 131.746 48.437" fill="#27965F" mask="url(#d)"/>
            <path d="M660.618 587.848s-30.145-72.586-74.943-117.926c-8.695-8.8-18.705-16.69-29.284-23.586 2.183 19.158 6.08 50.43 10.284 70.247 3.417 16.107 12.505 37.531 20.241 54.018 32.306 14.473 60.342 21.241 73.702 17.247" fill="#156039" mask="url(#d)"/>
            <path d="M631.496 562.905c-34.507-44.5-76.695-83.069-124.153-113.501M597.775 550.635a816.36 816.36 0 0 1-88.9-62.886" stroke="#72E8A5" stroke-width="2" stroke-linecap="round" stroke-linejoin="round" mask="url(#d)"/>
            <path d="M631.898 592.047s28.336-73.635 27.151-137.867c-1.184-64.23-44.349-135.562-64.5-133.575-19.589 1.933-38.295 83.484-23.824 145.402 14.47 61.917 41.73 115.923 61.173 126.04" fill="#39BC6E" mask="url(#d)"/>
            <path d="M633.967 564.439c6.948-50.124 3.15-101.214-4.269-151.268-3.557-24.007-8.112-48.378-19.66-69.6M625.365 552.169c-7.427-60.418-25.772-119.103-33.72-179.455" stroke="#72E8A5" stroke-width="2" stroke-linecap="round" stroke-linejoin="round" mask="url(#d)"/>
            <path d="M466.819 534.54c-2.583-2.1-6.246-2.843-9.464-1.922-3.11.891 6.952 10.903 8.559 11.442 7.572 2.547 4.393-6.686.905-9.52M434.206 549.809c-2.969-1.164-6.555-.876-9.263.741-2.617 1.564 9.466 7.686 11.099 7.746 7.693.281 2.174-6.916-1.836-8.487" fill="#1D8950" mask="url(#d)"/>
            <path d="M395.282 523.984c.623-2.995-.505-6.244-2.913-8.394-2.328-2.078-6.4 10.413-6.098 11.933 1.423 7.169 8.172.507 9.011-3.539M441.964 489.75c-2.612-2.018-6.175-2.559-9.205-1.398-2.929 1.121 7.365 10.886 8.94 11.346 7.428 2.166 3.792-7.223.265-9.948M347.792 545.177c-.645-2.98-2.903-5.59-5.836-6.744-2.833-1.116-1.424 11.816-.561 13.115 4.061 6.126 7.268-2.348 6.397-6.371M293.676 493.067c2.057-2.597 2.697-6.22 1.652-9.358-1.01-3.034-10.893 7.14-11.391 8.734-2.351 7.516 6.961 4.133 9.74.624" fill="#146038" mask="url(#d)"/>
            <path fill="#FFF" mask="url(#d)" d="M303.486 164.117h3.065v-7.67h-3.065zM303.486 182.522h3.065v-7.669h-3.065zM303.486 197.86h3.065v-7.669h-3.065zM303.486 214.732h3.065v-7.669h-3.065zM303.486 230.07h3.065v-7.669h-3.065zM303.486 246.942h3.065v-7.669h-3.065z"/>
            <path fill="#058BAF" mask="url(#d)" d="M171.669 157.982h21.458v-9.203H171.67zM171.669 177.921h21.458v-9.203H171.67zM171.669 197.86h21.458v-9.202H171.67zM171.669 219.334h21.458v-9.203H171.67zM171.669 239.273h21.458v-9.203H171.67z"/>
            <path d="M278.962 125.005c0 12.283-9.95 22.24-22.225 22.24-12.274 0-22.225-9.957-22.225-22.24 0-12.283 9.95-22.24 22.225-22.24 12.274 0 22.225 9.957 22.225 22.24" fill="#1B594D" mask="url(#d)"/>
            <path d="M283.56 125.005c0 12.283-9.95 22.24-22.225 22.24-12.274 0-22.225-9.957-22.225-22.24 0-12.283 9.95-22.24 22.225-22.24 12.274 0 22.225 9.957 22.225 22.24" fill="#2E8274" mask="url(#d)"/>
            <path fill="#FFF" mask="url(#d)" d="M272.83 129.932v-8.32h-8.105v-8.11h-8.313v8.11h-8.105v8.32h8.105v8.11h8.313v-8.11z"/>
            <path fill="#398E7E" mask="url(#d)" d="M518.072 230.07h12.262V217.8h-12.262zM544.129 230.07h12.262V217.8h-12.262zM570.186 230.07h12.262V217.8h-12.262zM518.072 257.679h12.262v-12.27h-12.262zM544.129 257.679h12.262v-12.27h-12.262zM435.303 207.063h12.262v-12.27h-12.262zM459.827 207.063h12.262v-12.27h-12.262zM435.303 239.273h12.262v-12.27h-12.262zM459.827 239.273h12.262v-12.27h-12.262zM435.303 273.017h12.262v-12.27h-12.262zM113.424 220.867h12.262v-12.27h-12.262zM141.014 220.867h12.262v-12.27h-12.262zM113.424 254.611h12.262v-12.27h-12.262zM141.014 254.611h12.262v-12.27h-12.262zM113.424 285.287h12.262v-12.27h-12.262zM141.014 285.287h12.262v-12.27h-12.262zM387.788 230.07h12.262V217.8h-12.262zM387.788 257.679h12.262v-12.27h-12.262zM459.827 273.017h12.262v-12.27h-12.262zM570.186 257.679h12.262v-12.27h-12.262zM518.072 283.753h12.262v-12.27h-12.262zM544.129 283.753h12.262v-12.27h-12.262zM570.186 283.753h12.262v-12.27h-12.262z"/>
        </g>
    </g>
</svg>
